<svg viewBox="0 0 336 192" xmlns="http://www.w3.org/2000/svg"><path fill="#FFDE00" d="M0 0h336v192H0z"/><path d="M96.054 86.141V69.899h10.07c1.627 0 3.021.7998 4.183 2.3995 1.176 1.5859 1.764 3.4931 1.764 5.7216 0 2.2422-.588 4.1563-1.764 5.7422-1.162 1.586-2.556 2.3789-4.183 2.3789h-10.07zm1.4766-1.4765h8.5929c1.217 0 2.256-.6495 3.117-1.9483.875-1.2988 1.313-2.8642 1.313-4.6963 0-1.8457-.438-3.4111-1.313-4.6963-.861-1.2988-1.9-1.9482-3.117-1.9482h-8.5929v13.289zm-2.9532 2.9531h11.546c2.037 0 3.787-.9365 5.25-2.8096 1.476-1.8867 2.215-4.1494 2.215-6.7881 0-1.7363-.342-3.3427-1.026-4.8193-.67-1.4766-1.579-2.6387-2.727-3.4863-1.135-.8614-2.372-1.292-3.712-1.292h-11.546v19.195zm-1.4765 1.4766v-22.148h13.023c1.599 0 3.09.4922 4.471 1.4766 1.38.9843 2.474 2.331 3.281 4.04.82 1.6953 1.23 3.5479 1.23 5.5576 0 1.9961-.41 3.8487-1.23 5.5576-.807 1.709-1.901 3.0557-3.281 4.0401-1.381.9844-2.872 1.4766-4.471 1.4766h-13.023zm-1.4766 1.4765h14.499c1.873 0 3.609-.5605 5.209-1.6816 1.613-1.1211 2.898-2.6455 3.855-4.5733.957-1.9277 1.436-4.0263 1.436-6.2959 0-2.2558-.479-4.3476-1.436-6.2754-.957-1.9414-2.242-3.4726-3.855-4.5937s-3.35-1.6816-5.209-1.6816h-14.499v25.102zm-1.4766 1.4766v-28.055h15.976c2.133 0 4.122.6289 5.968 1.8867 1.845 1.2441 3.315 2.9463 4.409 5.1065 1.094 2.1601 1.64 4.5048 1.64 7.0341s-.546 4.8741-1.64 7.0342c-1.094 2.1602-2.564 3.8692-4.409 5.127-1.846 1.2441-3.835 1.8662-5.968 1.8662h-15.976zm-1.4765 1.4765h17.452c1.791 0 3.52-.4101 5.188-1.2304s3.111-1.9209 4.327-3.3018c1.217-1.3808 2.188-3.0283 2.913-4.9424.738-1.9277 1.107-3.9375 1.107-6.0293s-.369-4.0947-1.107-6.0088c-.725-1.914-1.696-3.5615-2.913-4.9423-1.216-1.3946-2.659-2.502-4.327-3.3223s-3.397-1.2305-5.188-1.2305h-17.452v31.008zm17.452 1.4766h-18.929v-33.961h18.929c2.666 0 5.154.7588 7.465 2.2763 2.31 1.5176 4.149 3.5821 5.516 6.1934 1.381 2.6113 2.072 5.4482 2.072 8.5107 0 2.2969-.411 4.4981-1.231 6.6035-.807 2.0918-1.887 3.8965-3.24 5.4141-1.354 1.5176-2.96 2.7275-4.819 3.6299-1.846.8887-3.767 1.333-5.763 1.333zm23.596 0h-1.476v-33.961h1.476v33.961zm-2.953 0h-1.477v-33.961h1.477v33.961zm-2.953 0h-1.477v-33.961h1.477v33.961zm8.859-7.3828h15.709v1.4766h-15.709v1.4765h15.709v1.4766h-15.709v1.4765h15.709v1.4766h-17.185v-33.961h17.185v1.4765h-15.709v1.4766h15.709v1.4766h-15.709v1.4765h15.709v1.4766h-15.709v5.9062h8.06v1.4766h-8.06v1.4765h8.06v1.4766h-8.06v1.4766h8.06v1.4765h-8.06v5.9063zm41.377-8.9619l-1.477-2.4405v-15.176h1.477v17.616zm2.953 4.8398l-1.477-2.4814v-19.975h1.477v22.456zm2.953 4.9014l-1.477-2.502v-24.855h1.477v27.357zm-21.164-11.013l1.477 2.4404v15.176h-1.477v-17.616zm-2.953-4.8399l1.476 2.4815v19.975h-1.476v-22.456zm-2.953-4.9013l1.476 2.5019v24.856h-1.476v-27.357zm.512-6.6035h1.723l20.877 33.961h-1.723l-20.877-33.961zm3.487 0h1.743l20.856 33.961h-1.763l-20.836-33.961zm3.466 0h1.722l19.36 31.562v-31.562h1.476v33.961h-1.743l-20.815-33.961zm-8.942 2.3994v31.562h-1.476v-33.961h1.763l20.816 33.961h-1.702l-19.401-31.562zm57.414 15.217l-1.477-2.4405v-15.176h1.477v17.616zm2.953 4.8398l-1.477-2.4814V61.039h1.477v22.456zm2.953 4.9014l-1.476-2.502v-24.855h1.476v27.357zm-21.164-11.013l1.477 2.4404v15.176h-1.477v-17.616zm-2.953-4.8399l1.476 2.4815v19.975h-1.476v-22.456zm-2.953-4.9013l1.476 2.5019v24.856h-1.476v-27.357zm.512-6.6035h1.723l20.877 33.961h-1.723l-20.877-33.961zm3.487 0h1.743l20.856 33.961h-1.763l-20.836-33.961zm3.466 0h1.722l19.36 31.562v-31.562h1.476v33.961h-1.743l-20.815-33.961zm-8.942 2.3994v31.562h-1.476v-33.961h1.763l20.816 33.961h-1.702l-19.401-31.562zm44.658 14.478l-.738 1.6201-8.86-18.498h1.477l8.121 16.878zm1.477-3.2402l-.759 1.6201-7.362-15.258h1.476l6.645 13.638zm1.476-3.2198l-.738 1.6201-5.906-12.038h1.476l5.168 10.418zm-1.866 12.1l10.685-22.518h1.476l-10.684 22.518v11.443h-1.477v-11.443zm2.953 0l10.685-22.518h1.476l-10.684 22.518v11.443h-1.477v-11.443zm2.953 0l10.685-22.518h1.476l-10.684 22.518v11.443h-1.477v-11.443zm-8.121-1.5586l9.946-20.959h1.477l-10.685 22.518v11.443h-1.476v-11.443l-10.685-22.518h1.477l9.946 20.959zm-159.3 30.924h8.5723c1.4082 0 2.5976-.472 3.5683-1.415.9844-.957 1.4766-2.304 1.4766-4.04 0-1.299-.5127-2.461-1.5381-3.487-1.0254-1.039-2.1943-1.558-3.5068-1.558h-12.674v26.578h-1.4766v-28.055h14.15c1.7226 0 3.2402.663 4.5527 1.99 1.3125 1.326 1.9688 2.836 1.9688 4.532 0 2.092-.6358 3.773-1.9073 5.045-1.2714 1.258-2.8095 1.886-4.6142 1.886h-8.5723v-1.476zm0 2.953h8.5723c1.4219 0 2.7344-.342 3.9375-1.025 1.2168-.698 2.1943-1.696 2.9326-2.995.752-1.298 1.1279-2.761 1.1279-4.388 0-2.106-.8066-3.965-2.4199-5.578-1.5996-1.614-3.459-2.4202-5.5781-2.4202h-15.627v29.531H61.88v-31.008h17.104c1.6543 0 3.2129.4375 4.6758 1.3125 1.4629.8753 2.625 2.0443 3.4863 3.5073.875 1.462 1.3125 3.014 1.3125 4.655 0 1.859-.4375 3.554-1.3125 5.086-.875 1.517-2.0371 2.7-3.4863 3.548-1.4356.834-2.9942 1.251-4.6758 1.251h-8.5723v-1.477zm0 2.953h8.5723c1.4629 0 2.8642-.287 4.2041-.861 1.3398-.588 2.5019-1.374 3.4863-2.359.9981-.998 1.791-2.201 2.3789-3.609.5879-1.422.8819-2.933.8819-4.532 0-1.914-.4991-3.712-1.4971-5.394-.9981-1.695-2.3447-3.0418-4.04-4.0398-1.6817-1.0117-3.4864-1.5176-5.4141-1.5176h-18.58v32.484h-1.4766v-33.961h20.057c2.1875 0 4.2383.5742 6.1523 1.7226 1.9141 1.1348 3.4385 2.6592 4.5733 4.5733 1.1347 1.914 1.7021 3.958 1.7021 6.132 0 1.941-.3349 3.732-1.0049 5.373-.6699 1.627-1.5722 2.98-2.707 4.06s-2.4541 1.921-3.958 2.523c-1.5039.588-3.0898.882-4.7578.882h-8.5723v-1.477zm-1.1484 10.172h-1.4766v-25.102h11.197c.9707 0 1.8047.356 2.5019 1.067.711.711 1.0664 1.545 1.0664 2.502 0 2.652-1.1894 3.978-3.5683 3.978h-8.5723v-1.476h8.5723c.6562 0 1.1689-.185 1.5381-.554.3691-.369.5537-1.019.5537-1.948 0-.602-.2051-1.101-.6152-1.497-.3965-.397-.8887-.595-1.4766-.595h-9.7207v23.625zm35.245-22.723c-1.586 1.586-2.379 3.5-2.379 5.743 0 2.242.793 4.156 2.379 5.742s3.5 2.379 5.742 2.379 4.156-.793 5.742-2.379 2.379-3.5 2.379-5.742c0-2.243-.793-4.157-2.379-5.743s-3.5-2.379-5.742-2.379-4.156.793-5.742 2.379zm-3.097 9.475c-.506-1.19-.759-2.434-.759-3.732 0-1.299.253-2.537.759-3.712.506-1.19 1.19-2.215 2.051-3.077.861-.861 1.88-1.544 3.056-2.05 1.189-.506 2.433-.759 3.732-.759s2.536.253 3.712.759c1.189.506 2.215 1.189 3.076 2.05.861.862 1.545 1.887 2.051 3.077.506 1.175.759 2.413.759 3.712 0 1.298-.253 2.542-.759 3.732-.506 1.176-1.19 2.194-2.051 3.056-.861.861-1.887 1.545-3.076 2.05-1.176.506-2.413.759-3.712.759s-2.543-.253-3.732-.759c-1.176-.505-2.195-1.189-3.056-2.05-.861-.862-1.545-1.88-2.051-3.056zm-.759-9.29c-.984 1.695-1.4762 3.548-1.4762 5.558 0 2.009.4922 3.862 1.4762 5.557.998 1.695 2.345 3.042 4.04 4.04 1.696.985 3.548 1.477 5.558 1.477s3.862-.492 5.558-1.477c1.695-.998 3.035-2.345 4.019-4.04.998-1.695 1.497-3.548 1.497-5.557 0-2.01-.499-3.863-1.497-5.558-.984-1.695-2.324-3.035-4.019-4.02-1.696-.998-3.548-1.497-5.558-1.497s-3.862.499-5.558 1.497c-1.695.985-3.042 2.325-4.04 4.02zm-1.2711 11.853c-1.1211-1.927-1.6817-4.026-1.6817-6.295 0-2.27.5606-4.369 1.6817-6.296 1.1211-1.928 2.6451-3.453 4.5731-4.574s4.026-1.6812 6.296-1.6812 4.368.5602 6.296 1.6812 3.452 2.646 4.573 4.574c1.121 1.927 1.682 4.026 1.682 6.296 0 2.269-.561 4.368-1.682 6.295-1.121 1.928-2.645 3.453-4.573 4.574s-4.026 1.681-6.296 1.681-4.368-.56-6.296-1.681-3.452-2.646-4.5731-4.574zm-2.0508-11.751c-.7383 1.737-1.1074 3.555-1.1074 5.456 0 1.9.3691 3.718 1.1074 5.455.7383 1.736 1.7295 3.233 2.9739 4.491 1.258 1.244 2.755 2.235 4.491 2.973 1.736.739 3.555 1.108 5.455 1.108s3.719-.369 5.455-1.108c1.736-.738 3.227-1.729 4.471-2.973 1.258-1.258 2.256-2.755 2.994-4.491.738-1.737 1.107-3.555 1.107-5.455 0-1.901-.369-3.719-1.107-5.456-.738-1.736-1.736-3.226-2.994-4.47-1.244-1.258-2.735-2.2561-4.471-2.9944s-3.555-1.1074-5.455-1.1074-3.719.3691-5.455 1.1074-3.233 1.7364-4.491 2.9944c-1.2444 1.244-2.2356 2.734-2.9739 4.47zm-.5127 13.228c-1.3809-2.379-2.0713-4.97-2.0713-7.772 0-2.803.6904-5.394 2.0713-7.773 1.3945-2.379 3.2816-4.2587 5.6606-5.6396 2.378-1.3945 4.969-2.0918 7.772-2.0918s5.394.6973 7.772 2.0918c2.379 1.3809 4.259 3.2606 5.64 5.6396 1.395 2.379 2.092 4.97 2.092 7.773 0 2.802-.697 5.393-2.092 7.772-1.381 2.379-3.261 4.266-5.64 5.66-2.378 1.381-4.969 2.071-7.772 2.071s-5.394-.69-7.772-2.071c-2.379-1.394-4.2661-3.281-5.6606-5.66zm-2.2149-14.355c-.8886 2.091-1.333 4.286-1.333 6.583 0 2.296.4444 4.498 1.333 6.603.9024 2.092 2.1123 3.897 3.6299 5.414 1.5176 1.518 3.3226 2.728 5.4136 3.63 2.106.889 4.307 1.333 6.604 1.333s4.491-.444 6.583-1.333c2.105-.902 3.917-2.112 5.435-3.63 1.517-1.517 2.72-3.322 3.609-5.414.902-2.105 1.353-4.307 1.353-6.603 0-2.297-.451-4.492-1.353-6.583-.889-2.106-2.092-3.917-3.609-5.435-1.518-1.5176-3.33-2.7208-5.435-3.6094-2.092-.9024-4.286-1.3535-6.583-1.3535s-4.498.4511-6.604 1.3535c-2.091.8886-3.896 2.0918-5.4136 3.6094-1.5176 1.518-2.7275 3.329-3.6299 5.435zm-1.3535 13.76c-.9707-2.283-1.456-4.676-1.456-7.177 0-2.502.4853-4.888 1.456-7.158.9844-2.283 2.2969-4.245 3.9375-5.8854 1.6543-1.6543 3.6165-2.9668 5.8855-3.9375 2.283-.9844 4.676-1.4766 7.178-1.4766s4.888.4922 7.157 1.4766c2.283.9707 4.245 2.2832 5.886 3.9375 1.654 1.6404 2.967 3.6024 3.937 5.8854.985 2.27 1.477 4.656 1.477 7.158 0 2.501-.492 4.894-1.477 7.177-.97 2.27-2.283 4.232-3.937 5.886-1.641 1.641-3.603 2.946-5.886 3.917-2.269.984-4.655 1.477-7.157 1.477s-4.895-.493-7.178-1.477c-2.269-.971-4.2312-2.276-5.8855-3.917-1.6406-1.654-2.9531-3.616-3.9375-5.886zm47.57-7.095h8.9c1.354 0 2.495-.438 3.425-1.313.944-.875 1.415-2.119 1.415-3.732 0-1.19-.492-2.256-1.476-3.2-.985-.957-2.106-1.435-3.364-1.435h-12.673v26.578h-1.477v-28.055h14.15c1.668 0 3.138.622 4.41 1.867 1.271 1.23 1.907 2.645 1.907 4.245 0 1.968-.615 3.547-1.846 4.737-1.23 1.189-2.721 1.784-4.471 1.784h-8.9v-1.476zm0 2.953h8.9c2.133 0 3.965-.745 5.496-2.236 1.532-1.504 2.297-3.424 2.297-5.762 0-2.01-.786-3.774-2.358-5.291-1.559-1.532-3.37-2.2972-5.435-2.2972h-15.627v29.531h-1.476v-31.008h17.103c1.627 0 3.152.417 4.574 1.251 1.435.8338 2.577 1.9548 3.424 3.3628.848 1.395 1.272 2.878 1.272 4.451 0 2.693-.916 4.949-2.748 6.767-1.819 1.805-3.992 2.707-6.522 2.707h-8.9v-1.476zm0 2.953h8.9c1.914 0 3.692-.472 5.332-1.415 1.641-.944 2.953-2.256 3.938-3.938.984-1.695 1.476-3.561 1.476-5.598 0-1.846-.492-3.576-1.476-5.189-.971-1.627-2.283-2.9256-3.938-3.8963-1.654-.9707-3.431-1.4561-5.332-1.4561h-18.58v32.484h-1.476v-33.961h20.056c2.147 0 4.163.5537 6.05 1.6611 1.887 1.0937 3.384 2.5703 4.491 4.4298 1.121 1.846 1.682 3.821 1.682 5.927 0 2.433-.526 4.573-1.579 6.419-1.039 1.845-2.454 3.288-4.245 4.327l3.814 11.197h-1.558l-3.651-10.5c-.547.219-.964.369-1.251.451l3.425 10.049h-1.559l-3.342-9.7c-.123.027-.561.075-1.313.143l3.179 9.557h-1.559l-3.137-9.516h-1.333l2.994 9.516h-1.559l-3.014-9.516h-5.435v-1.476zm-.82 10.992h-1.477v-25.102h11.197c.916 0 1.702.315 2.359.944.67.615 1.005 1.353 1.005 2.215 0 2.379-1.121 3.568-3.364 3.568h-8.9v-1.477h8.9c.588 0 1.046-.15 1.374-.451.342-.314.513-.861.513-1.64 0-.479-.185-.875-.554-1.19-.355-.328-.799-.492-1.333-.492h-9.72v23.625zm19.474-32.484v-1.4765h22.148v1.4765h-22.148zm0 2.9532v-1.4766h22.148v1.4766h-22.148zm0 2.9532v-1.477h22.148v1.477h-5.906v26.578h-1.477v-26.578h-1.476v26.578h-1.477v-26.578h-1.476v26.578h-1.477v-26.578h-1.476v26.578h-1.477v-26.578h-5.906zm32.271-7.3829h1.477v33.961h-1.477v-33.961zm-2.953 0h1.476v33.961h-1.476v-33.961zm-2.953 0h1.476v33.961h-1.476v-33.961zm-2.953 0h1.476v33.961h-1.476v-33.961zm12.132 0h1.477v33.961h-1.477v-33.961zm8.859 0h1.477v26.578h11.812v1.477h-11.812v1.476h11.812v1.477h-11.812v1.476h11.812v1.477h-13.289v-33.961zm-2.953 0h1.477v33.961h-1.477v-33.961zm-2.953 0h1.477v33.961h-1.477v-33.961zm20.377 0h1.476v33.961h-1.476v-33.961zm8.859 0h1.477v26.578h11.812v1.477h-11.812v1.476h11.812v1.477h-11.812v1.476h11.812v1.477h-13.289v-33.961zm-2.953 0h1.476v33.961h-1.476v-33.961zm-2.953 0h1.476v33.961h-1.476v-33.961zm32.332 11.238c-1.586 1.586-2.378 3.5-2.378 5.743 0 2.242.792 4.156 2.378 5.742s3.5 2.379 5.743 2.379c2.242 0 4.156-.793 5.742-2.379s2.379-3.5 2.379-5.742c0-2.243-.793-4.157-2.379-5.743s-3.5-2.379-5.742-2.379c-2.243 0-4.157.793-5.743 2.379zm-3.096 9.475c-.506-1.19-.759-2.434-.759-3.732 0-1.299.253-2.537.759-3.712.506-1.19 1.189-2.215 2.051-3.077.861-.861 1.879-1.544 3.055-2.05 1.19-.506 2.434-.759 3.733-.759 1.298 0 2.536.253 3.712.759 1.189.506 2.214 1.189 3.076 2.05.861.862 1.545 1.887 2.05 3.077.506 1.175.759 2.413.759 3.712 0 1.298-.253 2.542-.759 3.732-.505 1.176-1.189 2.194-2.05 3.056-.862.861-1.887 1.545-3.076 2.05-1.176.506-2.414.759-3.712.759-1.299 0-2.543-.253-3.733-.759-1.176-.505-2.194-1.189-3.055-2.05-.862-.862-1.545-1.88-2.051-3.056zm-.759-9.29c-.984 1.695-1.477 3.548-1.477 5.558 0 2.009.493 3.862 1.477 5.557.998 1.695 2.345 3.042 4.04 4.04 1.695.985 3.548 1.477 5.558 1.477 2.009 0 3.862-.492 5.557-1.477 1.696-.998 3.035-2.345 4.02-4.04.998-1.695 1.497-3.548 1.497-5.557 0-2.01-.499-3.863-1.497-5.558-.985-1.695-2.324-3.035-4.02-4.02-1.695-.998-3.548-1.497-5.557-1.497-2.01 0-3.863.499-5.558 1.497-1.695.985-3.042 2.325-4.04 4.02zm-1.272 11.853c-1.121-1.927-1.681-4.026-1.681-6.295 0-2.27.56-4.369 1.681-6.296 1.122-1.928 2.646-3.453 4.574-4.574 1.927-1.121 4.026-1.6812 6.296-1.6812 2.269 0 4.368.5602 6.296 1.6812 1.927 1.121 3.452 2.646 4.573 4.574 1.121 1.927 1.681 4.026 1.681 6.296 0 2.269-.56 4.368-1.681 6.295-1.121 1.928-2.646 3.453-4.573 4.574-1.928 1.121-4.027 1.681-6.296 1.681-2.27 0-4.369-.56-6.296-1.681-1.928-1.121-3.452-2.646-4.574-4.574zm-2.05-11.751c-.739 1.737-1.108 3.555-1.108 5.456 0 1.9.369 3.718 1.108 5.455.738 1.736 1.729 3.233 2.973 4.491 1.258 1.244 2.755 2.235 4.492 2.973 1.736.739 3.554 1.108 5.455 1.108 1.9 0 3.718-.369 5.455-1.108 1.736-.738 3.226-1.729 4.47-2.973 1.258-1.258 2.256-2.755 2.995-4.491.738-1.737 1.107-3.555 1.107-5.455 0-1.901-.369-3.719-1.107-5.456-.739-1.736-1.737-3.226-2.995-4.47-1.244-1.258-2.734-2.2561-4.47-2.9944-1.737-.7383-3.555-1.1074-5.455-1.1074-1.901 0-3.719.3691-5.455 1.1074-1.737.7383-3.234 1.7364-4.492 2.9944-1.244 1.244-2.235 2.734-2.973 4.47zm-.513 13.228c-1.381-2.379-2.071-4.97-2.071-7.772 0-2.803.69-5.394 2.071-7.773 1.395-2.379 3.281-4.2587 5.66-5.6396 2.379-1.3945 4.97-2.0918 7.773-2.0918 2.802 0 5.393.6973 7.772 2.0918 2.379 1.3809 4.259 3.2606 5.64 5.6396 1.394 2.379 2.092 4.97 2.092 7.773 0 2.802-.698 5.393-2.092 7.772-1.381 2.379-3.261 4.266-5.64 5.66-2.379 1.381-4.97 2.071-7.772 2.071-2.803 0-5.394-.69-7.773-2.071-2.379-1.394-4.265-3.281-5.66-5.66zm-2.215-14.355c-.889 2.091-1.333 4.286-1.333 6.583 0 2.296.444 4.498 1.333 6.603.902 2.092 2.112 3.897 3.63 5.414 1.518 1.518 3.322 2.728 5.414 3.63 2.106.889 4.307 1.333 6.604 1.333 2.296 0 4.491-.444 6.583-1.333 2.105-.902 3.917-2.112 5.434-3.63 1.518-1.517 2.721-3.322 3.61-5.414.902-2.105 1.353-4.307 1.353-6.603 0-2.297-.451-4.492-1.353-6.583-.889-2.106-2.092-3.917-3.61-5.435-1.517-1.5176-3.329-2.7208-5.434-3.6094-2.092-.9024-4.287-1.3535-6.583-1.3535-2.297 0-4.498.4511-6.604 1.3535-2.092.8886-3.896 2.0918-5.414 3.6094-1.518 1.518-2.728 3.329-3.63 5.435zm-1.353 13.76c-.971-2.283-1.456-4.676-1.456-7.177 0-2.502.485-4.888 1.456-7.158.984-2.283 2.297-4.245 3.937-5.8854 1.654-1.6543 3.616-2.9668 5.886-3.9375 2.283-.9844 4.676-1.4766 7.178-1.4766s4.887.4922 7.157 1.4766c2.283.9707 4.245 2.2832 5.886 3.9375 1.654 1.6404 2.966 3.6024 3.937 5.8854.984 2.27 1.477 4.656 1.477 7.158 0 2.501-.493 4.894-1.477 7.177-.971 2.27-2.283 4.232-3.937 5.886-1.641 1.641-3.603 2.946-5.886 3.917-2.27.984-4.655 1.477-7.157 1.477s-4.895-.493-7.178-1.477c-2.27-.971-4.232-2.276-5.886-3.917-1.64-1.654-2.953-3.616-3.937-5.886z"/></svg>