<svg width="336" height="192" fill="none" xmlns="http://www.w3.org/2000/svg"><path fill="#fff" d="M0 0h336v192H0z"/><path d="M73.9402 91.8c.84 0 1.5867.18 2.24.54.6667.36 1.1867.8933 1.56 1.6.3867.7067.58 1.56.58 2.56v6.5h-2.26v-6.16c0-.9867-.2466-1.74-.74-2.26-.4933-.5333-1.1666-.8-2.02-.8-.8533 0-1.5333.2667-2.04.8-.4933.52-.74 1.2733-.74 2.26V103h-2.28V88.2h2.28v5.06c.3867-.4667.8734-.8267 1.46-1.08.6-.2533 1.2534-.38 1.96-.38zm17.3883 5.42c0 .4133-.0267.7867-.08 1.12h-8.42c.0667.88.3933 1.5867.98 2.12.5867.533 1.3067.8 2.16.8 1.2267 0 2.0933-.513 2.6-1.54h2.46c-.3333 1.013-.94 1.847-1.82 2.5-.8667.64-1.9467.96-3.24.96-1.0533 0-2-.233-2.84-.7-.8267-.48-1.48-1.147-1.96-2-.4667-.8667-.7-1.8667-.7-3s.2267-2.1267.68-2.98c.4667-.8667 1.1133-1.5333 1.94-2 .84-.4667 1.8-.7 2.88-.7 1.04 0 1.9667.2267 2.78.68.8133.4533 1.4467 1.0933 1.9 1.92.4533.8133.68 1.7533.68 2.82zm-2.38-.72c-.0133-.84-.3133-1.5133-.9-2.02-.5867-.5067-1.3133-.76-2.18-.76-.7867 0-1.46.2533-2.02.76-.56.4933-.8933 1.1667-1 2.02h6.1zm6.9038-8.3V103h-2.28V88.2h2.28zm5.2737 0V103h-2.2803V88.2h2.2803zm7.773 14.98c-1.04 0-1.98-.233-2.82-.7-.84-.48-1.5-1.147-1.98-2-.48-.8667-.72-1.8667-.72-3 0-1.12.247-2.1133.74-2.98.493-.8667 1.167-1.5333 2.02-2 .853-.4667 1.807-.7 2.86-.7s2.007.2333 2.86.7c.853.4667 1.527 1.1333 2.02 2 .493.8667.74 1.86.74 2.98 0 1.12-.253 2.1133-.76 2.98-.507.867-1.2 1.54-2.08 2.02-.867.467-1.827.7-2.88.7zm0-1.98c.587 0 1.133-.14 1.64-.42.52-.28.94-.7 1.26-1.26.32-.56.48-1.24.48-2.04s-.153-1.4733-.46-2.02c-.307-.56-.713-.98-1.22-1.26s-1.053-.42-1.64-.42-1.133.14-1.64.42c-.493.28-.887.7-1.18 1.26-.293.5467-.44 1.22-.44 2.02 0 1.1867.3 2.1067.9 2.76.613.64 1.38.96 2.3.96zm18.234-11.12c1.52 0 2.833.28 3.94.84 1.107.56 1.947 1.3467 2.52 2.36.587 1 .88 2.1667.88 3.5 0 1.0667-.187 2.0867-.56 3.06-.36.973-.887 1.767-1.58 2.38-.68.613-1.487.92-2.42.92-.68 0-1.213-.147-1.6-.44-.387-.307-.627-.733-.72-1.28-.413.533-.933.953-1.56 1.26-.627.307-1.28.46-1.96.46-1.027 0-1.833-.307-2.42-.92-.573-.627-.86-1.473-.86-2.54 0-1.0133.207-1.96.62-2.84.427-.88 1.02-1.58 1.78-2.1.76-.5333 1.613-.8 2.56-.8 1.16 0 1.973.3933 2.44 1.18l.18-1h1.98l-1 5.72c-.04.28-.06.527-.06.74 0 .347.067.607.2.78.147.173.4.26.76.26.507 0 .94-.247 1.3-.74.36-.507.627-1.1267.8-1.86.187-.7333.28-1.4467.28-2.14 0-1.6933-.493-2.9867-1.48-3.88s-2.42-1.34-4.3-1.34c-1.573 0-2.987.3733-4.24 1.12-1.24.7467-2.213 1.7733-2.92 3.08-.707 1.3067-1.06 2.76-1.06 4.36 0 1.707.507 3.007 1.52 3.9 1.013.893 2.46 1.34 4.34 1.34 1.267 0 2.373-.233 3.32-.7l.3 1.52c-1.213.52-2.573.78-4.08.78-1.453 0-2.727-.273-3.82-.82-1.093-.547-1.94-1.327-2.54-2.34-.6-1-.9-2.167-.9-3.5 0-1.9067.44-3.6467 1.32-5.22.893-1.5733 2.127-2.8133 3.7-3.72 1.573-.92 3.353-1.38 5.34-1.38zm-2.36 11.3c.56 0 1.067-.16 1.52-.48.467-.333.833-.767 1.1-1.3.267-.5467.4-1.1267.4-1.74 0-.64-.18-1.16-.54-1.56-.347-.4133-.84-.62-1.48-.62-.573 0-1.08.18-1.52.54-.427.3467-.76.8-1 1.36-.227.56-.34 1.1467-.34 1.76 0 .6267.153 1.127.46 1.5.307.36.773.54 1.4.54zm11.848-3.94c0-1.1067.227-2.0867.68-2.94.467-.8533 1.093-1.5133 1.88-1.98.8-.48 1.687-.72 2.66-.72.72 0 1.427.16 2.12.48.707.3067 1.267.72 1.68 1.24V88.2h2.3V103h-2.3v-1.66c-.373.533-.893.973-1.56 1.32-.653.347-1.407.52-2.26.52-.96 0-1.84-.24-2.64-.72-.787-.493-1.413-1.173-1.88-2.04-.453-.88-.68-1.8733-.68-2.98zm9.02.04c0-.76-.16-1.42-.48-1.98-.307-.56-.713-.9867-1.22-1.28s-1.053-.44-1.64-.44-1.133.1467-1.64.44c-.507.28-.92.7-1.24 1.26-.307.5467-.46 1.2-.46 1.96s.153 1.4267.46 2c.32.573.733 1.013 1.24 1.32.52.293 1.067.44 1.64.44.587 0 1.133-.147 1.64-.44.507-.293.913-.72 1.22-1.28.32-.5733.48-1.24.48-2zm4.955-5.46c.08-1.24.553-2.2067 1.42-2.9.88-.6933 2-1.04 3.36-1.04.933 0 1.74.1667 2.42.5.68.3333 1.193.7867 1.54 1.36.346.5733.52 1.22.52 1.94 0 .8267-.22 1.5333-.66 2.12-.44.5867-.967.98-1.58 1.18v.08c.786.24 1.4.68 1.84 1.32.44.6267.66 1.4333.66 2.42 0 .7867-.18 1.487-.54 2.1-.36.613-.894 1.1-1.6 1.46-.707.347-1.554.52-2.54.52-1.44 0-2.627-.367-3.56-1.1-.92-.747-1.414-1.813-1.48-3.2h2.2c.053.7067.326 1.287.82 1.74.493.44 1.16.66 2 .66.813 0 1.44-.22 1.88-.66.44-.453.66-1.0333.66-1.74 0-.9333-.3-1.5933-.9-1.98-.587-.4-1.494-.6-2.72-.6h-.52v-1.88h.54c1.08-.0133 1.9-.1933 2.46-.54.573-.3467.86-.8933.86-1.64 0-.64-.207-1.1467-.62-1.52-.414-.3867-1-.58-1.76-.58-.747 0-1.327.1933-1.74.58-.414.3733-.66.84-.74 1.4h-2.22zm14.495 1.58c.386-.5067.913-.9333 1.58-1.28.666-.3467 1.42-.52 2.26-.52.96 0 1.833.24 2.62.72.8.4667 1.426 1.1267 1.88 1.98.453.8533.68 1.8333.68 2.94s-.227 2.1-.68 2.98c-.454.867-1.08 1.547-1.88 2.04-.787.48-1.66.72-2.62.72-.84 0-1.587-.167-2.24-.5-.654-.347-1.187-.773-1.6-1.28v6.84h-2.28V91.98h2.28v1.62zm6.7 3.84c0-.76-.16-1.4133-.48-1.96-.307-.56-.72-.98-1.24-1.26-.507-.2933-1.054-.44-1.64-.44-.574 0-1.12.1467-1.64.44-.507.2933-.92.72-1.24 1.28-.307.56-.46 1.22-.46 1.98s.153 1.4267.46 2c.32.56.733.987 1.24 1.28.52.293 1.066.44 1.64.44.586 0 1.133-.147 1.64-.44.52-.307.933-.747 1.24-1.32.32-.5733.48-1.24.48-2zm9.354 5.74c-1.04 0-1.98-.233-2.82-.7-.84-.48-1.5-1.147-1.98-2-.48-.8667-.72-1.8667-.72-3 0-1.12.247-2.1133.74-2.98.494-.8667 1.167-1.5333 2.02-2 .854-.4667 1.807-.7 2.86-.7 1.054 0 2.007.2333 2.86.7.854.4667 1.527 1.1333 2.02 2 .494.8667.74 1.86.74 2.98 0 1.12-.253 2.1133-.76 2.98-.506.867-1.2 1.54-2.08 2.02-.866.467-1.826.7-2.88.7zm0-1.98c.587 0 1.134-.14 1.64-.42.52-.28.94-.7 1.26-1.26.32-.56.48-1.24.48-2.04s-.153-1.4733-.46-2.02c-.306-.56-.713-.98-1.22-1.26-.506-.28-1.053-.42-1.64-.42-.586 0-1.133.14-1.64.42-.493.28-.886.7-1.18 1.26-.293.5467-.44 1.22-.44 2.02 0 1.1867.3 2.1067.9 2.76.614.64 1.38.96 2.3.96zm10.254-7.62c.333-.56.773-.9933 1.32-1.3.56-.32 1.22-.48 1.98-.48v2.36h-.58c-.893 0-1.573.2267-2.04.68-.453.4533-.68 1.24-.68 2.36v5.8h-2.28V91.98h2.28v1.6zm8.056.26v6.1c0 .413.093.713.28.9.2.173.533.26 1 .26h1.4v1.9h-1.8c-1.027 0-1.813-.24-2.36-.72-.547-.48-.82-1.26-.82-2.34v-6.1h-1.3v-1.86h1.3v-2.74h2.3v2.74h2.68v1.86h-2.68zm5.941-3.32c-.413 0-.76-.14-1.04-.42-.28-.28-.42-.6267-.42-1.04s.14-.76.42-1.04c.28-.28.627-.42 1.04-.42.4 0 .74.14 1.02.42.28.28.42.6267.42 1.04s-.14.76-.42 1.04c-.28.28-.62.42-1.02.42zm1.12 1.46V103h-2.28V91.98h2.28zm5.274-3.78V103h-2.28V88.2h2.28zm5.273 0V103h-2.28V88.2h2.28zm7.774 14.98c-1.04 0-1.98-.233-2.82-.7-.84-.48-1.5-1.147-1.98-2-.48-.8667-.72-1.8667-.72-3 0-1.12.246-2.1133.74-2.98.493-.8667 1.166-1.5333 2.02-2 .853-.4667 1.806-.7 2.86-.7 1.053 0 2.006.2333 2.86.7.853.4667 1.526 1.1333 2.02 2 .493.8667.74 1.86.74 2.98 0 1.12-.254 2.1133-.76 2.98-.507.867-1.2 1.54-2.08 2.02-.867.467-1.827.7-2.88.7zm0-1.98c.586 0 1.133-.14 1.64-.42.52-.28.94-.7 1.26-1.26.32-.56.48-1.24.48-2.04s-.154-1.4733-.46-2.02c-.307-.56-.714-.98-1.22-1.26-.507-.28-1.054-.42-1.64-.42-.587 0-1.134.14-1.64.42-.494.28-.887.7-1.18 1.26-.294.5467-.44 1.22-.44 2.02 0 1.1867.3 2.1067.9 2.76.613.64 1.38.96 2.3.96zm8.894 1.94c-.414 0-.76-.14-1.04-.42-.28-.28-.42-.627-.42-1.04 0-.413.14-.76.42-1.04.28-.28.626-.42 1.04-.42.4 0 .74.14 1.02.42.28.28.42.627.42 1.04 0 .413-.14.76-.42 1.04-.28.28-.62.42-1.02.42zm17.244-11.34c.866 0 1.64.18 2.32.54.693.36 1.233.8933 1.62 1.6.4.7067.6 1.56.6 2.56v6.5h-2.26v-6.16c0-.9867-.247-1.74-.74-2.26-.494-.5333-1.167-.8-2.02-.8-.854 0-1.534.2667-2.04.8-.494.52-.74 1.2733-.74 2.26V103h-2.26v-6.16c0-.9867-.247-1.74-.74-2.26-.494-.5333-1.167-.8-2.02-.8-.854 0-1.534.2667-2.04.8-.494.52-.74 1.2733-.74 2.26V103h-2.28V91.98h2.28v1.26c.373-.4533.846-.8067 1.42-1.06.573-.2533 1.186-.38 1.84-.38.88 0 1.666.1867 2.36.56.693.3733 1.226.9133 1.6 1.62.333-.6667.853-1.1933 1.56-1.58.706-.4 1.466-.6 2.28-.6zm17.541 5.42c0 .4133-.027.7867-.08 1.12h-8.42c.067.88.393 1.5867.98 2.12.587.533 1.307.8 2.16.8 1.227 0 2.093-.513 2.6-1.54h2.46c-.333 1.013-.94 1.847-1.82 2.5-.867.64-1.947.96-3.24.96-1.053 0-2-.233-2.84-.7-.827-.48-1.48-1.147-1.96-2-.467-.8667-.7-1.8667-.7-3s.227-2.1267.68-2.98c.467-.8667 1.113-1.5333 1.94-2 .84-.4667 1.8-.7 2.88-.7 1.04 0 1.967.2267 2.78.68.813.4533 1.447 1.0933 1.9 1.92.453.8133.68 1.7533.68 2.82zm-2.38-.72c-.013-.84-.313-1.5133-.9-2.02-.587-.5067-1.313-.76-2.18-.76-.787 0-1.46.2533-2.02.76-.56.4933-.893 1.1667-1 2.02h6.1z" fill="#000"/></svg>