<svg fill="none" xmlns="http://www.w3.org/2000/svg" viewBox="0 0 280 261"><path fill="#fff" d="M0 0h280v261H0z"/><path fill="#C4C4C4" fill-opacity=".27" d="M112.06 28.831l99.5702075 37.9439298-27.4547327 72.0450793-99.5702075-37.9439298z"/><path fill="#F6F6F6" d="M115.137 41.0741l99.5702075 37.9439298-27.4547327 72.0450793-99.5702075-37.9439298z"/><path d="M187.253 151.063l13.727-36.022 13.728-36.023-99.571-37.9439-27.4542 72.0449" stroke="#000" stroke-width="3"/><path fill="#C4C4C4" d="M104.825 88.7011l66.7408668 25.4334186-1.5755198 4.1343852-66.7408667-25.4334185zM99.5442 100.627l54.1739301 20.6444463-1.5755197 4.1343853-54.1739301-20.6444463z"/><path d="M125.19 68.8905c1.067.4067 2.231.4869 3.345.2304 1.114-.2564 2.128-.8379 2.913-1.6709.785-.8331 1.306-1.8802 1.498-3.0091.192-1.1289.045-2.2888-.421-3.333-.466-1.0442-1.231-1.9259-2.198-2.5335-.967-.6076-2.093-.9138-3.235-.88-1.141.0339-2.248.4063-3.18 1.0701-.932.6639-1.647 1.5894-2.055 2.6595-.547 1.435-.503 3.0278.122 4.428.625 1.4003 1.78 2.4933 3.211 3.0385zm-.589 1.5459c-3.344-1.2743-10.809-1.7467-12.376 2.3653l-1.178 3.0918 20.039 7.6365 1.178-3.0918c1.567-4.1121-4.319-8.7274-7.663-10.0018zM41.29 187.21c0 1.74-.6 3.19-1.8 4.35-1.18 1.14-2.99 1.71-5.43 1.71h-4.02V202h-2.73v-20.91h6.75c2.36 0 4.15.57 5.37 1.71 1.24 1.14 1.86 2.61 1.86 4.41zm-7.23 3.81c1.52 0 2.64-.33 3.36-.99.72-.66 1.08-1.6 1.08-2.82 0-2.58-1.48-3.87-4.44-3.87h-4.02v7.68h4.02zm13.353-2.79c.48-.94 1.16-1.67 2.04-2.19.9-.52 1.99-.78 3.27-.78v2.82h-.72c-3.06 0-4.59 1.66-4.59 4.98V202h-2.73v-16.44h2.73v2.67zm23.4615 4.92c0 .52-.03 1.07-.09 1.65h-13.14c.1 1.62.65 2.89 1.65 3.81 1.02.9 2.25 1.35 3.69 1.35 1.18 0 2.16-.27 2.94-.81.8-.56 1.36-1.3 1.68-2.22h2.94c-.44 1.58-1.32 2.87-2.64 3.87-1.32.98-2.96 1.47-4.92 1.47-1.56 0-2.96-.35-4.2-1.05-1.22-.7-2.18-1.69-2.88-2.97-.7-1.3-1.05-2.8-1.05-4.5 0-1.7.34-3.19 1.02-4.47.68-1.28 1.63-2.26 2.85-2.94 1.24-.7 2.66-1.05 4.26-1.05 1.56 0 2.94.34 4.14 1.02 1.2.68 2.12 1.62 2.76 2.82.66 1.18.99 2.52.99 4.02zm-2.82-.57c0-1.04-.23-1.93-.69-2.67-.46-.76-1.09-1.33-1.89-1.71-.78-.4-1.65-.6-2.61-.6-1.38 0-2.56.44-3.54 1.32-.96.88-1.51 2.1-1.65 3.66h10.38zm12.2435 9.69c-1.26 0-2.39-.21-3.39-.63-1-.44-1.79-1.04-2.37-1.8-.58-.78-.9-1.67-.96-2.67h2.82c.08.82.46 1.49 1.14 2.01.7.52 1.61.78 2.73.78 1.04 0 1.86-.23 2.46-.69.6-.46.9-1.04.9-1.74 0-.72-.32-1.25-.96-1.59-.64-.36-1.63-.71-2.97-1.05-1.22-.32-2.22-.64-3-.96-.76-.34-1.42-.83-1.98-1.47-.54-.66-.81-1.52-.81-2.58 0-.84.25-1.61.75-2.31s1.21-1.25 2.13-1.65c.92-.42 1.97-.63 3.15-.63 1.82 0 3.29.46 4.41 1.38 1.12.92 1.72 2.18 1.8 3.78h-2.73c-.06-.86-.41-1.55-1.05-2.07-.62-.52-1.46-.78-2.52-.78-.98 0-1.76.21-2.34.63-.58.42-.87.97-.87 1.65 0 .54.17.99.51 1.35.36.34.8.62 1.32.84.54.2 1.28.43 2.22.69 1.18.32 2.14.64 2.88.96.74.3 1.37.76 1.89 1.38.54.62.82 1.43.84 2.43 0 .9-.25 1.71-.75 2.43-.5.72-1.21 1.29-2.13 1.71-.9.4-1.94.6-3.12.6zm24.854-9.12c0 .52-.03 1.07-.09 1.65H91.9218c.1 1.62.65 2.89 1.65 3.81 1.02.9 2.25 1.35 3.69 1.35 1.18 0 2.16-.27 2.9402-.81.8-.56 1.36-1.3 1.68-2.22h2.94c-.44 1.58-1.32 2.87-2.64 3.87-1.32.98-2.9602 1.47-4.9202 1.47-1.56 0-2.96-.35-4.2-1.05-1.22-.7-2.18-1.69-2.88-2.97-.7-1.3-1.05-2.8-1.05-4.5 0-1.7.34-3.19 1.02-4.47.68-1.28 1.63-2.26 2.85-2.94 1.24-.7 2.66-1.05 4.26-1.05 1.56 0 2.9402.34 4.1402 1.02 1.2.68 2.12 1.62 2.76 2.82.66 1.18.99 2.52.99 4.02zm-2.82-.57c0-1.04-.23-1.93-.69-2.67-.46-.76-1.09-1.33-1.8902-1.71-.78-.4-1.65-.6-2.61-.6-1.38 0-2.56.44-3.54 1.32-.96.88-1.51 2.1-1.65 3.66h10.3802zm14.433-7.32c2 0 3.62.61 4.86 1.83 1.24 1.2 1.86 2.94 1.86 5.22V202h-2.7v-9.3c0-1.64-.41-2.89-1.23-3.75-.82-.88-1.94-1.32-3.36-1.32-1.44 0-2.59.45-3.45 1.35-.84.9-1.26 2.21-1.26 3.93V202h-2.73v-16.44h2.73v2.34c.54-.84 1.27-1.49 2.19-1.95.94-.46 1.97-.69 3.09-.69zm14.51 2.55v9.69c0 .8.17 1.37.51 1.71.34.32.93.48 1.77.48h2.01V202h-2.46c-1.52 0-2.66-.35-3.42-1.05-.76-.7-1.14-1.85-1.14-3.45v-9.69h-2.13v-2.25h2.13v-4.14h2.73v4.14h4.29v2.25h-4.29zm6.578 5.91c0-1.68.34-3.15 1.02-4.41.68-1.28 1.61-2.27 2.79-2.97 1.2-.7 2.53-1.05 3.99-1.05 1.44 0 2.69.31 3.75.93 1.06.62 1.85 1.4 2.37 2.34v-3h2.76V202h-2.76v-3.06c-.54.96-1.35 1.76-2.43 2.4-1.06.62-2.3.93-3.72.93-1.46 0-2.78-.36-3.96-1.08-1.18-.72-2.11-1.73-2.79-3.03-.68-1.3-1.02-2.78-1.02-4.44zm13.92.03c0-1.24-.25-2.32-.75-3.24-.5-.92-1.18-1.62-2.04-2.1-.84-.5-1.77-.75-2.79-.75s-1.95.24-2.79.72c-.84.48-1.51 1.18-2.01 2.1-.5.92-.75 2-.75 3.24 0 1.26.25 2.36.75 3.3.5.92 1.17 1.63 2.01 2.13.84.48 1.77.72 2.79.72s1.95-.24 2.79-.72c.86-.5 1.54-1.21 2.04-2.13.5-.94.75-2.03.75-3.27zm10.703-5.94v9.69c0 .8.17 1.37.51 1.71.34.32.93.48 1.77.48h2.01V202h-2.46c-1.52 0-2.66-.35-3.42-1.05-.76-.7-1.14-1.85-1.14-3.45v-9.69h-2.13v-2.25h2.13v-4.14h2.73v4.14h4.29v2.25h-4.29zm9.008-4.92c-.52 0-.96-.18-1.32-.54-.36-.36-.54-.8-.54-1.32s.18-.96.54-1.32c.36-.36.8-.54 1.32-.54.5 0 .92.18 1.26.54.36.36.54.8.54 1.32s-.18.96-.54 1.32c-.34.36-.76.54-1.26.54zm1.32 2.67V202h-2.73v-16.44h2.73zm11.822 16.71c-1.54 0-2.94-.35-4.2-1.05-1.24-.7-2.22-1.69-2.94-2.97-.7-1.3-1.05-2.8-1.05-4.5 0-1.68.36-3.16 1.08-4.44.74-1.3 1.74-2.29 3-2.97 1.26-.7 2.67-1.05 4.23-1.05 1.56 0 2.97.35 4.23 1.05 1.26.68 2.25 1.66 2.97 2.94.74 1.28 1.11 2.77 1.11 4.47 0 1.7-.38 3.2-1.14 4.5-.74 1.28-1.75 2.27-3.03 2.97-1.28.7-2.7 1.05-4.26 1.05zm0-2.4c.98 0 1.9-.23 2.76-.69.86-.46 1.55-1.15 2.07-2.07.54-.92.81-2.04.81-3.36 0-1.32-.26-2.44-.78-3.36-.52-.92-1.2-1.6-2.04-2.04-.84-.46-1.75-.69-2.73-.69-1 0-1.92.23-2.76.69-.82.44-1.48 1.12-1.98 2.04-.5.92-.75 2.04-.75 3.36 0 1.34.24 2.47.72 3.39.5.92 1.16 1.61 1.98 2.07.82.44 1.72.66 2.7.66zm20.03-14.61c2 0 3.62.61 4.86 1.83 1.24 1.2 1.86 2.94 1.86 5.22V202h-2.7v-9.3c0-1.64-.41-2.89-1.23-3.75-.82-.88-1.94-1.32-3.36-1.32-1.44 0-2.59.45-3.45 1.35-.84.9-1.26 2.21-1.26 3.93V202h-2.73v-16.44h2.73v2.34c.54-.84 1.27-1.49 2.19-1.95.94-.46 1.97-.69 3.09-.69zM26.29 221.53c0-2.04.46-3.87 1.38-5.49.92-1.64 2.17-2.92 3.75-3.84 1.6-.92 3.37-1.38 5.31-1.38 2.28 0 4.27.55 5.97 1.65 1.7 1.1 2.94 2.66 3.72 4.68h-3.27c-.58-1.26-1.42-2.23-2.52-2.91-1.08-.68-2.38-1.02-3.9-1.02-1.46 0-2.77.34-3.93 1.02-1.16.68-2.07 1.65-2.73 2.91-.66 1.24-.99 2.7-.99 4.38 0 1.66.33 3.12.99 4.38.66 1.24 1.57 2.2 2.73 2.88 1.16.68 2.47 1.02 3.93 1.02 1.52 0 2.82-.33 3.9-.99 1.1-.68 1.94-1.65 2.52-2.91h3.27c-.78 2-2.02 3.55-3.72 4.65-1.7 1.08-3.69 1.62-5.97 1.62-1.94 0-3.71-.45-5.31-1.35-1.58-.92-2.83-2.19-3.75-3.81-.92-1.62-1.38-3.45-1.38-5.49zm23.1738 2.19c0-1.68.34-3.15 1.02-4.41.68-1.28 1.61-2.27 2.79-2.97 1.2-.7 2.53-1.05 3.99-1.05 1.44 0 2.69.31 3.75.93 1.06.62 1.85 1.4 2.37 2.34v-3h2.76V232h-2.76v-3.06c-.54.96-1.35 1.76-2.43 2.4-1.06.62-2.3.93-3.72.93-1.46 0-2.78-.36-3.96-1.08-1.18-.72-2.11-1.73-2.79-3.03-.68-1.3-1.02-2.78-1.02-4.44zm13.92.03c0-1.24-.25-2.32-.75-3.24-.5-.92-1.18-1.62-2.04-2.1-.84-.5-1.77-.75-2.79-.75s-1.95.24-2.79.72c-.84.48-1.51 1.18-2.01 2.1-.5.92-.75 2-.75 3.24 0 1.26.25 2.36.75 3.3.5.92 1.17 1.63 2.01 2.13.84.48 1.77.72 2.79.72s1.95-.24 2.79-.72c.86-.5 1.54-1.21 2.04-2.13.5-.94.75-2.03.75-3.27zm10.1035-5.52c.48-.94 1.16-1.67 2.04-2.19.9-.52 1.99-.78 3.27-.78v2.82h-.72c-3.06 0-4.59 1.66-4.59 4.98V232h-2.73v-16.44h2.73v2.67zm7.4414 5.49c0-1.68.34-3.15 1.02-4.41.68-1.28 1.61-2.27 2.79-2.97 1.2-.7 2.54-1.05 4.02-1.05 1.28 0 2.47.3 3.57.9 1.1.58 1.94 1.35 2.52 2.31v-8.7h2.76V232h-2.76v-3.09c-.54.98-1.34 1.79-2.4 2.43-1.06.62-2.3.93-3.72.93-1.46 0-2.79-.36-3.99-1.08-1.18-.72-2.11-1.73-2.79-3.03-.68-1.3-1.02-2.78-1.02-4.44zm13.92.03c0-1.24-.25-2.32-.75-3.24-.5-.92-1.18-1.62-2.04-2.1-.84-.5-1.77-.75-2.79-.75s-1.95.24-2.79.72c-.84.48-1.51 1.18-2.01 2.1-.5.92-.75 2-.75 3.24 0 1.26.25 2.36.75 3.3.5.92 1.17 1.63 2.01 2.13.84.48 1.77.72 2.79.72s1.95-.24 2.79-.72c.86-.5 1.54-1.21 2.04-2.13.5-.94.75-2.03.75-3.27z" fill="#000"/><path d="M240 240l17-17M240 223h17v17" stroke="#000" stroke-width="3" stroke-linecap="round" stroke-linejoin="round"/></svg>