<svg fill="none" xmlns="http://www.w3.org/2000/svg" viewBox="0 0 280 261"><path d="M32.1712 145l209.4408-13.522 11.311 24.42-206.7722 12.837L32.1712 145z" fill="#F6F6F6"/><path d="M185.967 40.0492V1.5h.533v39.0103l.259.3815 13.398 19.7302.37.5449.652.0963 14.213 2.0999 1.147 62.1369h-19.372v-22.572h-40.334V125.5h-19.4V58.2793H122.5V35.4952l13.619-1.6966 1.314-.1638v-9.5625h2.234c9.449 0 17.135 7.6474 17.166 17.0457l-1.675 21.2642-.164 2.0788 2.023-.5058 10.882-2.7207.463-.1159.312-.3625 16.931-19.7301.362-.4215v-.5553zm34.787 14.2689c-.223.1805-.443.3667-.658.5581.433-1.4116.936-2.7126 1.559-3.8598.795-1.4624 1.748-2.5985 2.936-3.3743 1.176-.7683 2.676-1.2456 4.676-1.2456h2.233v4.4414h-2.233c-2.993 0-6.069 1.4996-8.513 3.4802zm3.421 13.9977c-.428-.8653-.897-1.7126-1.399-2.5115 5.069 2.6492 8.724 6.9566 8.724 12.5785v2.2207h-4.467v-2.2207c0-2.75-1.185-6.6842-2.858-10.067z" stroke="#000" stroke-width="3"/><path d="M31.04 183.31v6.99h7.62v2.25h-7.62v7.2h8.52V202H28.31v-20.94h11.25v2.25h-8.52zm18.7709 16.17l5.1-13.92h2.91l-6.45 16.44h-3.18l-6.45-16.44h2.94l5.13 13.92zm25.6964-6.33c0 .52-.03 1.07-.09 1.65h-13.14c.1 1.62.65 2.89 1.65 3.81 1.02.9 2.25 1.35 3.69 1.35 1.18 0 2.16-.27 2.94-.81.8-.56 1.36-1.3 1.68-2.22h2.94c-.44 1.58-1.32 2.87-2.64 3.87-1.32.98-2.96 1.47-4.92 1.47-1.56 0-2.96-.35-4.2-1.05-1.22-.7-2.18-1.69-2.88-2.97-.7-1.3-1.05-2.8-1.05-4.5 0-1.7.34-3.19 1.02-4.47.68-1.28 1.63-2.26 2.85-2.94 1.24-.7 2.66-1.05 4.26-1.05 1.56 0 2.94.34 4.14 1.02 1.2.68 2.12 1.62 2.76 2.82.66 1.18.99 2.52.99 4.02zm-2.82-.57c0-1.04-.23-1.93-.69-2.67-.46-.76-1.09-1.33-1.89-1.71-.78-.4-1.65-.6-2.61-.6-1.38 0-2.56.44-3.54 1.32-.96.88-1.51 2.1-1.65 3.66h10.38zm14.4335-7.32c2 0 3.62.61 4.86 1.83 1.24 1.2 1.86 2.94 1.86 5.22V202h-2.7v-9.3c0-1.64-.41-2.89-1.23-3.75-.82-.88-1.94-1.32-3.36-1.32-1.44 0-2.59.45-3.45 1.35-.84.9-1.26 2.21-1.26 3.93V202h-2.73v-16.44h2.73v2.34c.54-.84 1.27-1.49 2.19-1.95.94-.46 1.97-.69 3.09-.69zm14.5092 2.55v9.69c0 .8.17 1.37.51 1.71.34.32.93.48 1.77.48h2.01V202h-2.46c-1.52 0-2.66-.35-3.42-1.05-.7598-.7-1.1398-1.85-1.1398-3.45v-9.69h-2.13v-2.25h2.13v-4.14h2.7298v4.14h4.29v2.25h-4.29zm22.226 14.4c-1.38 0-2.62-.24-3.72-.72-1.08-.5-1.93-1.18-2.55-2.04-.62-.88-.94-1.89-.96-3.03h2.91c.1.98.5 1.81 1.2 2.49.72.66 1.76.99 3.12.99 1.3 0 2.32-.32 3.06-.96.76-.66 1.14-1.5 1.14-2.52 0-.8-.22-1.45-.66-1.95-.44-.5-.99-.88-1.65-1.14-.66-.26-1.55-.54-2.67-.84-1.38-.36-2.49-.72-3.33-1.08-.82-.36-1.53-.92-2.13-1.68-.58-.78-.87-1.82-.87-3.12 0-1.14.29-2.15.87-3.03.58-.88 1.39-1.56 2.43-2.04 1.06-.48 2.27-.72 3.63-.72 1.96 0 3.56.49 4.8 1.47 1.26.98 1.97 2.28 2.13 3.9h-3c-.1-.8-.52-1.5-1.26-2.1-.74-.62-1.72-.93-2.94-.93-1.14 0-2.07.3-2.79.9-.72.58-1.08 1.4-1.08 2.46 0 .76.21 1.38.63 1.86.44.48.97.85 1.59 1.11.64.24 1.53.52 2.67.84 1.38.38 2.49.76 3.33 1.14.84.36 1.56.93 2.16 1.71.6.76.9 1.8.9 3.12 0 1.02-.27 1.98-.81 2.88-.54.9-1.34 1.63-2.4 2.19-1.06.56-2.31.84-3.75.84zm13.707-22.41V202h-2.73v-22.2h2.73zm6.063 3.09c-.52 0-.96-.18-1.32-.54-.36-.36-.54-.8-.54-1.32s.18-.96.54-1.32c.36-.36.8-.54 1.32-.54.5 0 .92.18 1.26.54.36.36.54.8.54 1.32s-.18.96-.54 1.32c-.34.36-.76.54-1.26.54zm1.32 2.67V202h-2.73v-16.44h2.73zm3.633 8.16c0-1.68.34-3.15 1.02-4.41.68-1.28 1.61-2.27 2.79-2.97 1.2-.7 2.54-1.05 4.02-1.05 1.28 0 2.47.3 3.57.9 1.1.58 1.94 1.35 2.52 2.31v-8.7h2.76V202h-2.76v-3.09c-.54.98-1.34 1.79-2.4 2.43-1.06.62-2.3.93-3.72.93-1.46 0-2.79-.36-3.99-1.08-1.18-.72-2.11-1.73-2.79-3.03-.68-1.3-1.02-2.78-1.02-4.44zm13.92.03c0-1.24-.25-2.32-.75-3.24-.5-.92-1.18-1.62-2.04-2.1-.84-.5-1.77-.75-2.79-.75s-1.95.24-2.79.72c-.84.48-1.51 1.18-2.01 2.1-.5.92-.75 2-.75 3.24 0 1.26.25 2.36.75 3.3.5.92 1.17 1.63 2.01 2.13.84.48 1.77.72 2.79.72s1.95-.24 2.79-.72c.86-.5 1.54-1.21 2.04-2.13.5-.94.75-2.03.75-3.27zm22.374-.6c0 .52-.03 1.07-.09 1.65h-13.14c.1 1.62.65 2.89 1.65 3.81 1.02.9 2.25 1.35 3.69 1.35 1.18 0 2.16-.27 2.94-.81.8-.56 1.36-1.3 1.68-2.22h2.94c-.44 1.58-1.32 2.87-2.64 3.87-1.32.98-2.96 1.47-4.92 1.47-1.56 0-2.96-.35-4.2-1.05-1.22-.7-2.18-1.69-2.88-2.97-.7-1.3-1.05-2.8-1.05-4.5 0-1.7.34-3.19 1.02-4.47.68-1.28 1.63-2.26 2.85-2.94 1.24-.7 2.66-1.05 4.26-1.05 1.56 0 2.94.34 4.14 1.02 1.2.68 2.12 1.62 2.76 2.82.66 1.18.99 2.52.99 4.02zm-2.82-.57c0-1.04-.23-1.93-.69-2.67-.46-.76-1.09-1.33-1.89-1.71-.78-.4-1.65-.6-2.61-.6-1.38 0-2.56.44-3.54 1.32-.96.88-1.51 2.1-1.65 3.66h10.38zm12.243 9.69c-1.26 0-2.39-.21-3.39-.63-1-.44-1.79-1.04-2.37-1.8-.58-.78-.9-1.67-.96-2.67h2.82c.08.82.46 1.49 1.14 2.01.7.52 1.61.78 2.73.78 1.04 0 1.86-.23 2.46-.69.6-.46.9-1.04.9-1.74 0-.72-.32-1.25-.96-1.59-.64-.36-1.63-.71-2.97-1.05-1.22-.32-2.22-.64-3-.96-.76-.34-1.42-.83-1.98-1.47-.54-.66-.81-1.52-.81-2.58 0-.84.25-1.61.75-2.31s1.21-1.25 2.13-1.65c.92-.42 1.97-.63 3.15-.63 1.82 0 3.29.46 4.41 1.38 1.12.92 1.72 2.18 1.8 3.78h-2.73c-.06-.86-.41-1.55-1.05-2.07-.62-.52-1.46-.78-2.52-.78-.98 0-1.76.21-2.34.63-.58.42-.87.97-.87 1.65 0 .54.17.99.51 1.35.36.34.8.62 1.32.84.54.2 1.28.43 2.22.69 1.18.32 2.14.64 2.88.96.74.3 1.37.76 1.89 1.38.54.62.82 1.43.84 2.43 0 .9-.25 1.71-.75 2.43-.5.72-1.21 1.29-2.13 1.71-.9.4-1.94.6-3.12.6zM44.36 232l-2.73-2.76c-1.02 1.06-2.11 1.85-3.27 2.37-1.16.5-2.47.75-3.93.75-1.44 0-2.72-.26-3.84-.78-1.1-.52-1.96-1.26-2.58-2.22-.6-.96-.9-2.08-.9-3.36 0-1.46.41-2.74 1.23-3.84.84-1.12 2.07-2 3.69-2.64-.64-.76-1.1-1.46-1.38-2.1-.28-.64-.42-1.34-.42-2.1 0-.88.22-1.67.66-2.37.46-.72 1.11-1.28 1.95-1.68.84-.4 1.81-.6 2.91-.6 1.08 0 2.02.21 2.82.63.8.42 1.4 1.01 1.8 1.77.4.74.58 1.57.54 2.49h-2.73c.02-.82-.21-1.46-.69-1.92-.48-.48-1.1-.72-1.86-.72-.8 0-1.45.23-1.95.69-.48.44-.72 1.01-.72 1.71 0 .6.16 1.18.48 1.74.34.56.9 1.25 1.68 2.07l6.24 6.27.54-.84 2.04-3.42h2.94l-2.46 4.26c-.34.6-.74 1.23-1.2 1.89l4.71 4.71h-3.57zm-9.93-1.98c1.08 0 2.05-.21 2.91-.63.88-.42 1.71-1.07 2.49-1.95l-6.15-6.18c-2.56.98-3.84 2.53-3.84 4.65 0 1.18.42 2.16 1.26 2.94.86.78 1.97 1.17 3.33 1.17zm39.8958-12.87c-.58-1.22-1.42-2.16-2.52-2.82-1.1-.68-2.38-1.02-3.84-1.02s-2.78.34-3.96 1.02c-1.16.66-2.08 1.62-2.76 2.88-.66 1.24-.99 2.68-.99 4.32 0 1.64.33 3.08.99 4.32.68 1.24 1.6 2.2 2.76 2.88 1.18.66 2.5.99 3.96.99 2.04 0 3.72-.61 5.04-1.83 1.32-1.22 2.09-2.87 2.31-4.95h-8.34v-2.22h11.25v2.1c-.16 1.72-.7 3.3-1.62 4.74-.92 1.42-2.13 2.55-3.63 3.39-1.5.82-3.17 1.23-5.01 1.23-1.94 0-3.71-.45-5.31-1.35-1.6-.92-2.87-2.19-3.81-3.81-.92-1.62-1.38-3.45-1.38-5.49s.46-3.87 1.38-5.49c.94-1.64 2.21-2.91 3.81-3.81 1.6-.92 3.37-1.38 5.31-1.38 2.22 0 4.18.55 5.88 1.65 1.72 1.1 2.97 2.65 3.75 4.65h-3.27zm14.6796 15.12c-1.54 0-2.94-.35-4.2-1.05-1.24-.7-2.22-1.69-2.94-2.97-.7-1.3-1.05-2.8-1.05-4.5 0-1.68.36-3.16 1.08-4.44.74-1.3 1.74-2.29 3-2.97 1.26-.7 2.67-1.05 4.23-1.05 1.56 0 2.97.35 4.23 1.05 1.26.68 2.25 1.66 2.97 2.94.74 1.28 1.11 2.77 1.11 4.47 0 1.7-.38 3.2-1.14 4.5-.74 1.28-1.75 2.27-3.03 2.97-1.28.7-2.7 1.05-4.26 1.05zm0-2.4c.98 0 1.9-.23 2.76-.69.86-.46 1.55-1.15 2.07-2.07.54-.92.81-2.04.81-3.36 0-1.32-.26-2.44-.78-3.36-.52-.92-1.2-1.6-2.04-2.04-.84-.46-1.75-.69-2.73-.69-1 0-1.92.23-2.76.69-.82.44-1.48 1.12-1.98 2.04-.5.92-.75 2.04-.75 3.36 0 1.34.24 2.47.72 3.39.5.92 1.16 1.61 1.98 2.07.82.44 1.72.66 2.7.66zm19.1896 2.4c-1.54 0-2.94-.35-4.2-1.05-1.24-.7-2.22-1.69-2.94-2.97-.7-1.3-1.05-2.8-1.05-4.5 0-1.68.36-3.16 1.08-4.44.74-1.3 1.74-2.29 3-2.97 1.26-.7 2.67-1.05 4.23-1.05 1.56 0 2.97.35 4.23 1.05 1.26.68 2.25 1.66 2.97 2.94.74 1.28 1.11 2.77 1.11 4.47 0 1.7-.38 3.2-1.14 4.5-.74 1.28-1.75 2.27-3.03 2.97-1.28.7-2.7 1.05-4.26 1.05zm0-2.4c.98 0 1.9-.23 2.76-.69.86-.46 1.55-1.15 2.07-2.07.54-.92.81-2.04.81-3.36 0-1.32-.26-2.44-.78-3.36-.52-.92-1.2-1.6-2.04-2.04-.84-.46-1.75-.69-2.73-.69-1 0-1.92.23-2.76.69-.82.44-1.48 1.12-1.98 2.04-.5.92-.75 2.04-.75 3.36 0 1.34.24 2.47.72 3.39.5.92 1.16 1.61 1.98 2.07.82.44 1.72.66 2.7.66zm10.999-6.15c0-1.68.34-3.15 1.02-4.41.68-1.28 1.61-2.27 2.79-2.97 1.2-.7 2.54-1.05 4.02-1.05 1.28 0 2.47.3 3.57.9 1.1.58 1.94 1.35 2.52 2.31v-8.7h2.76V232h-2.76v-3.09c-.54.98-1.34 1.79-2.4 2.43-1.06.62-2.3.93-3.72.93-1.46 0-2.79-.36-3.99-1.08-1.18-.72-2.11-1.73-2.79-3.03-.68-1.3-1.02-2.78-1.02-4.44zm13.92.03c0-1.24-.25-2.32-.75-3.24-.5-.92-1.18-1.62-2.04-2.1-.84-.5-1.77-.75-2.79-.75s-1.95.24-2.79.72c-.84.48-1.51 1.18-2.01 2.1-.5.92-.75 2-.75 3.24 0 1.26.25 2.36.75 3.3.5.92 1.17 1.63 2.01 2.13.84.48 1.77.72 2.79.72s1.95-.24 2.79-.72c.86-.5 1.54-1.21 2.04-2.13.5-.94.75-2.03.75-3.27zm8.784-10.86c-.52 0-.96-.18-1.32-.54-.36-.36-.54-.8-.54-1.32s.18-.96.54-1.32c.36-.36.8-.54 1.32-.54.5 0 .92.18 1.26.54.36.36.54.8.54 1.32s-.18.96-.54 1.32c-.34.36-.76.54-1.26.54zm1.32 2.67V232h-2.73v-16.44h2.73zm19.653 7.59c0 .52-.03 1.07-.09 1.65h-13.14c.1 1.62.65 2.89 1.65 3.81 1.02.9 2.25 1.35 3.69 1.35 1.18 0 2.16-.27 2.94-.81.8-.56 1.36-1.3 1.68-2.22h2.94c-.44 1.58-1.32 2.87-2.64 3.87-1.32.98-2.96 1.47-4.92 1.47-1.56 0-2.96-.35-4.2-1.05-1.22-.7-2.18-1.69-2.88-2.97-.7-1.3-1.05-2.8-1.05-4.5 0-1.7.34-3.19 1.02-4.47.68-1.28 1.63-2.26 2.85-2.94 1.24-.7 2.66-1.05 4.26-1.05 1.56 0 2.94.34 4.14 1.02 1.2.68 2.12 1.62 2.76 2.82.66 1.18.99 2.52.99 4.02zm-2.82-.57c0-1.04-.23-1.93-.69-2.67-.46-.76-1.09-1.33-1.89-1.71-.78-.4-1.65-.6-2.61-.6-1.38 0-2.56.44-3.54 1.32-.96.88-1.51 2.1-1.65 3.66h10.38zm12.243 9.69c-1.26 0-2.39-.21-3.39-.63-1-.44-1.79-1.04-2.37-1.8-.58-.78-.9-1.67-.96-2.67h2.82c.08.82.46 1.49 1.14 2.01.7.52 1.61.78 2.73.78 1.04 0 1.86-.23 2.46-.69.6-.46.9-1.04.9-1.74 0-.72-.32-1.25-.96-1.59-.64-.36-1.63-.71-2.97-1.05-1.22-.32-2.22-.64-3-.96-.76-.34-1.42-.83-1.98-1.47-.54-.66-.81-1.52-.81-2.58 0-.84.25-1.61.75-2.31s1.21-1.25 2.13-1.65c.92-.42 1.97-.63 3.15-.63 1.82 0 3.29.46 4.41 1.38 1.12.92 1.72 2.18 1.8 3.78h-2.73c-.06-.86-.41-1.55-1.05-2.07-.62-.52-1.46-.78-2.52-.78-.98 0-1.76.21-2.34.63-.58.42-.87.97-.87 1.65 0 .54.17.99.51 1.35.36.34.8.62 1.32.84.54.2 1.28.43 2.22.69 1.18.32 2.14.64 2.88.96.74.3 1.37.76 1.89 1.38.54.62.82 1.43.84 2.43 0 .9-.25 1.71-.75 2.43-.5.72-1.21 1.29-2.13 1.71-.9.4-1.94.6-3.12.6z" fill="#000"/><path d="M240 240l17-17M240 223h17v17" stroke="#000" stroke-width="3" stroke-linecap="round" stroke-linejoin="round"/></svg>