<svg width="280" height="261" fill="none" xmlns="http://www.w3.org/2000/svg"><path d="M248.344 222.5c0-8.75-7.094-15.844-15.844-15.844s-15.844 7.094-15.844 15.844 7.094 15.844 15.844 15.844 15.844-7.094 15.844-15.844zm-16.198 6.959c-.114-.113-.204-.247-.266-.394-.062-.148-.094-.306-.095-.466 0-.16.031-.319.091-.467.061-.148.15-.283.263-.397l3.985-4.016h-10.175c-.323 0-.633-.129-.862-.357-.228-.229-.357-.539-.357-.862 0-.323.129-.633.357-.862.229-.228.539-.357.862-.357h10.175l-3.985-4.016c-.113-.114-.202-.249-.263-.397-.06-.148-.091-.307-.09-.467 0-.16.033-.319.094-.466.062-.148.153-.282.267-.395.113-.113.248-.202.396-.262.149-.061.307-.092.467-.091.324.001.633.131.861.361l6.047 6.094c.227.228.354.536.354.858 0 .322-.127.63-.354.858l-6.047 6.094c-.113.114-.247.205-.395.267-.147.062-.306.094-.466.094-.16.001-.319-.03-.467-.091-.149-.06-.284-.15-.397-.263z" fill="#000"/><path d="M32.1712 145l209.4408-13.522 11.311 24.42-206.7722 12.837L32.1712 145z" fill="#F6F6F6"/><path d="M185.967 40.0492V1.5h.533v39.0103l.259.3815 13.398 19.7302.37.5449.652.0963 14.213 2.0999 1.147 62.1369h-19.372v-22.572h-40.334V125.5h-19.4V58.2793H122.5V35.4952l13.619-1.6966 1.314-.1638v-9.5625h2.234c9.449 0 17.135 7.6474 17.166 17.0457l-1.675 21.2642-.164 2.0788 2.023-.5058 10.882-2.7207.463-.1159.312-.3625 16.931-19.7301.362-.4215v-.5553zm34.787 14.2689c-.223.1805-.443.3667-.658.5581.433-1.4116.936-2.7126 1.559-3.8598.795-1.4624 1.748-2.5985 2.936-3.3743 1.176-.7683 2.676-1.2456 4.676-1.2456h2.233v4.4414h-2.233c-2.993 0-6.069 1.4996-8.513 3.4802zm3.421 13.9977c-.428-.8653-.897-1.7126-1.399-2.5115 5.069 2.6492 8.724 6.9566 8.724 12.5785v2.2207h-4.467v-2.2207c0-2.75-1.185-6.6842-2.858-10.067z" stroke="#000" stroke-width="3"/><path d="M210.726 121.752c0 .035-.012.064-.036.088-.024.024-.053.036-.088.036-.035 0-.064-.012-.088-.036-.024-.024-.036-.053-.036-.088 0-.033.012-.061.036-.084.024-.024.053-.036.088-.036.035 0 .064.012.088.036.024.023.036.051.036.084zm.178-.088H212v.182h-1.096v-.182zm.15-.532h.646c.053 0 .091-.012.114-.034.021-.023.032-.062.032-.118v-.134H212v.164c0 .101-.023.177-.07.228-.047.05-.123.076-.23.076h-.646v.142h-.15v-.142h-.276v-.182h.276v-.286h.15v.286zm-.646-.599l.398.024v.126l-.398.026v-.176zm1.61-.614c0 .084-.014.159-.042.226-.029.067-.069.119-.12.158-.052.039-.111.06-.178.064v-.188c.055-.005.099-.031.134-.076.035-.047.052-.107.052-.182 0-.069-.015-.124-.046-.164-.031-.04-.069-.06-.116-.06-.048 0-.083.021-.106.064-.024.043-.047.109-.07.198-.021.081-.043.148-.064.2-.023.051-.055.095-.098.132-.044.036-.101.054-.172.054-.056 0-.107-.017-.154-.05s-.083-.081-.11-.142c-.028-.061-.042-.131-.042-.21 0-.121.031-.219.092-.294.061-.075.145-.115.252-.12v.182c-.057.004-.103.027-.138.07-.035.041-.052.097-.052.168 0 .065.014.117.042.156.028.039.065.058.11.058.036 0 .066-.011.09-.034.023-.024.041-.053.056-.088.013-.036.029-.085.046-.148.021-.079.043-.143.064-.192.02-.049.051-.091.092-.126.041-.036.095-.055.162-.056.06 0 .114.017.162.05s.086.081.114.142c.027.06.04.129.04.208zm0-1.578c0 .084-.014.159-.042.226-.029.066-.069.119-.12.158-.052.038-.111.06-.178.064v-.188c.055-.006.099-.031.134-.076.035-.047.052-.108.052-.182 0-.07-.015-.124-.046-.164-.031-.04-.069-.06-.116-.06-.048 0-.083.021-.106.064-.024.042-.047.108-.07.198-.021.081-.043.148-.064.2-.023.05-.055.094-.098.132-.044.036-.101.054-.172.054-.056 0-.107-.017-.154-.05-.047-.034-.083-.081-.11-.142-.028-.062-.042-.132-.042-.21 0-.122.031-.22.092-.294.061-.075.145-.115.252-.12v.182c-.057.004-.103.027-.138.07-.035.041-.052.097-.052.168 0 .065.014.117.042.156.028.038.065.058.11.058.036 0 .066-.012.09-.034.023-.024.041-.054.056-.088.013-.036.029-.086.046-.148.021-.079.043-.143.064-.192.02-.05.051-.092.092-.126.041-.036.095-.055.162-.056.06 0 .114.016.162.05.048.033.086.08.114.142.027.06.04.129.04.208zm-1.114-1.629H212v.182h-.162c.056.035.1.083.132.146.031.061.046.129.046.204 0 .085-.017.162-.052.23-.036.068-.089.122-.16.162-.071.039-.157.058-.258.058h-.642v-.18h.618c.108 0 .191-.027.25-.082.057-.055.086-.129.086-.224 0-.097-.03-.174-.09-.23-.06-.056-.147-.084-.262-.084h-.602v-.182zm.202-.489c-.063-.036-.115-.09-.156-.16-.043-.072-.064-.156-.064-.25 0-.098.023-.186.07-.264.047-.08.113-.143.198-.188.084-.046.182-.068.294-.068.111 0 .209.022.296.068.087.045.154.108.202.188.048.078.072.166.072.264 0 .093-.021.176-.062.248-.043.07-.095.124-.158.162h.722v.182h-1.616v-.182h.202zm.342-.744c-.083 0-.155.016-.216.05-.061.033-.108.078-.14.136-.032.056-.048.118-.048.186 0 .066.017.128.05.186.032.056.079.101.142.136.061.033.133.05.214.05.083 0 .155-.017.218-.05.061-.035.109-.08.142-.136.032-.058.048-.12.048-.186 0-.068-.016-.13-.048-.186-.033-.058-.081-.103-.142-.136-.063-.034-.136-.05-.22-.05zm-.342-.608c-.063-.036-.115-.089-.156-.16-.043-.072-.064-.155-.064-.25 0-.097.023-.185.07-.264.047-.08.113-.143.198-.188.084-.045.182-.068.294-.068.111 0 .209.023.296.068.087.045.154.108.202.188.048.079.072.167.072.264 0 .093-.021.176-.062.248-.043.071-.095.125-.158.162h.722v.182h-1.616v-.182h.202zm.342-.744c-.083 0-.155.017-.216.05s-.108.079-.14.136c-.032.056-.048.118-.048.186 0 .067.017.129.05.186.032.056.079.101.142.136.061.033.133.05.214.05.083 0 .155-.017.218-.05.061-.035.109-.08.142-.136.032-.057.048-.119.048-.186 0-.068-.016-.13-.048-.186-.033-.057-.081-.103-.142-.136-.063-.033-.136-.05-.22-.05zm.57-.904c0 .103-.023.196-.07.28-.047.083-.113.148-.198.196-.087.047-.187.07-.3.07-.112 0-.211-.024-.296-.072-.087-.049-.153-.116-.198-.2-.047-.084-.07-.178-.07-.282 0-.104.023-.198.07-.282.045-.084.111-.15.196-.198.085-.049.185-.074.298-.074.113 0 .213.026.3.076.085.05.151.117.198.202.047.086.07.18.07.284zm-.16 0c0-.065-.015-.126-.046-.184-.031-.057-.077-.103-.138-.138-.061-.036-.136-.054-.224-.054s-.163.018-.224.052c-.061.035-.107.08-.136.136-.031.056-.046.117-.046.182 0 .067.015.128.046.184.029.055.075.099.136.132.061.034.136.05.224.05.089 0 .165-.016.226-.048.061-.033.107-.077.138-.132.029-.054.044-.114.044-.18zm.16-1.189c0 .084-.014.16-.042.226-.029.067-.069.12-.12.158-.052.039-.111.06-.178.064v-.188c.055-.005.099-.03.134-.076s.052-.107.052-.182c0-.069-.015-.124-.046-.164-.031-.04-.069-.06-.116-.06-.048 0-.083.022-.106.064-.024.043-.047.109-.07.198-.021.082-.043.148-.064.2-.023.051-.055.095-.098.132-.044.036-.101.054-.172.054-.056 0-.107-.016-.154-.05-.047-.033-.083-.08-.11-.142-.028-.061-.042-.131-.042-.21 0-.121.031-.219.092-.294.061-.074.145-.114.252-.12v.182c-.057.004-.103.028-.138.07-.035.042-.052.098-.052.168 0 .066.014.118.042.156.028.039.065.058.11.058.036 0 .066-.011.09-.034.023-.024.041-.053.056-.088.013-.036.029-.085.046-.148.021-.078.043-.142.064-.192.02-.049.051-.091.092-.126.041-.036.095-.054.162-.056.06 0 .114.017.162.05.048.034.086.081.114.142.027.06.04.13.04.208zm-.608-1.657c.035 0 .071.002.11.006v.876c.108-.006.193-.043.254-.11.06-.068.09-.15.09-.246 0-.078-.018-.144-.054-.196-.037-.053-.087-.09-.148-.112v-.196c.105.03.191.088.258.176.065.088.098.198.098.328 0 .104-.023.198-.07.28-.047.082-.113.146-.198.192-.087.047-.187.07-.3.07-.113 0-.213-.022-.298-.068-.085-.045-.151-.108-.196-.19-.047-.082-.07-.177-.07-.284 0-.104.023-.196.068-.276.045-.08.108-.141.188-.184.079-.044.168-.066.268-.066zm-.038.188c-.069 0-.129.016-.178.046-.051.031-.089.073-.114.126-.027.052-.04.11-.04.174 0 .092.029.171.088.236.059.064.14.101.244.11v-.692zm.076-.36c-.112 0-.21-.023-.294-.068-.085-.045-.151-.107-.198-.186-.047-.08-.07-.169-.07-.268 0-.085.02-.165.06-.238.039-.073.09-.129.154-.168h-.58v-.184H212v.184h-.206c.065.036.119.089.162.16.041.071.062.153.062.248 0 .097-.024.186-.072.266-.048.079-.115.141-.202.186-.087.045-.185.068-.296.068zm.002-.928c-.083 0-.155.017-.216.05s-.108.079-.14.136c-.033.056-.05.118-.05.186s.016.13.048.186c.032.056.079.101.14.134.061.033.133.05.216.05.084 0 .157-.017.22-.05.061-.033.109-.078.142-.134.032-.056.048-.118.048-.186s-.016-.13-.048-.186c-.033-.057-.081-.103-.142-.136-.063-.033-.135-.05-.218-.05zm-.396-1.247h.646c.053 0 .091-.011.114-.034.021-.022.032-.062.032-.118v-.134H212v.164c0 .102-.023.178-.07.228-.047.051-.123.076-.23.076h-.646v.142h-.15v-.142h-.276v-.182h.276v-.286h.15v.286zm.964-.984c0 .102-.023.196-.07.28-.047.082-.113.148-.198.196-.087.046-.187.07-.3.07-.112 0-.211-.024-.296-.072-.087-.05-.153-.116-.198-.2-.047-.084-.07-.178-.07-.282 0-.104.023-.198.07-.282.045-.084.111-.15.196-.198.085-.05.185-.074.298-.074.113 0 .213.025.3.076.085.049.151.116.198.202.047.085.07.18.07.284zm-.16 0c0-.066-.015-.127-.046-.184-.031-.058-.077-.104-.138-.138-.061-.036-.136-.054-.224-.054s-.163.017-.224.052c-.061.034-.107.08-.136.136-.031.056-.046.116-.046.182 0 .066.015.128.046.184.029.054.075.098.136.132.061.033.136.05.224.05.089 0 .165-.016.226-.048.061-.034.107-.078.138-.132.029-.055.044-.115.044-.18zm-.75-1.517c-.065-.037-.119-.092-.16-.164-.041-.072-.062-.154-.062-.246 0-.098.023-.187.07-.266.047-.078.113-.14.198-.186.084-.045.182-.068.294-.068.111 0 .209.023.296.068.087.046.154.108.202.188.048.079.072.167.072.264 0 .095-.021.178-.062.25-.041.071-.094.124-.158.16H212v.182h-1.48v-.182h.588zm.34-.744c-.083 0-.155.017-.216.05-.061.034-.108.079-.14.136-.032.056-.048.118-.048.186 0 .067.017.129.05.186.032.056.079.102.142.136.061.034.133.05.214.05.083 0 .155-.016.218-.05.061-.034.109-.08.142-.136.032-.057.048-.119.048-.186 0-.068-.016-.13-.048-.186-.033-.057-.081-.102-.142-.136-.063-.033-.136-.05-.22-.05zm-.038-1.425c.035 0 .071.002.11.006v.876c.108-.007.193-.044.254-.11.06-.068.09-.15.09-.246 0-.079-.018-.144-.054-.196-.037-.054-.087-.091-.148-.112v-.196c.105.029.191.088.258.176.065.088.098.197.098.328 0 .104-.023.197-.07.28-.047.081-.113.145-.198.192-.087.046-.187.07-.3.07-.113 0-.213-.023-.298-.068-.085-.046-.151-.109-.196-.19-.047-.083-.07-.178-.07-.284 0-.104.023-.196.068-.276.045-.08.108-.142.188-.184.079-.044.168-.066.268-.066zm-.038.188c-.069 0-.129.015-.178.046-.051.03-.089.072-.114.126-.027.052-.04.11-.04.174 0 .092.029.17.088.236.059.064.14.1.244.11v-.692zm.076-.894c-.112 0-.21-.022-.294-.068-.085-.045-.151-.107-.198-.186-.047-.08-.07-.168-.07-.266 0-.096.021-.179.062-.25.041-.07.093-.123.156-.158h-.2v-.184H212v.184h-.204c.064.036.117.09.16.162.041.071.062.154.062.248 0 .098-.024.186-.072.264-.048.079-.115.141-.202.186-.087.046-.185.068-.296.068zm.002-.928c-.083 0-.155.017-.216.05-.061.034-.108.079-.14.136-.033.056-.05.118-.05.186s.016.13.048.186c.032.056.079.101.14.134.061.034.133.05.216.05.084 0 .157-.016.22-.05.061-.033.109-.078.142-.134.032-.056.048-.118.048-.186s-.016-.13-.048-.186c-.033-.057-.081-.102-.142-.136-.063-.033-.135-.05-.218-.05zm-.344-1.207c-.063-.036-.115-.089-.156-.16-.043-.072-.064-.155-.064-.25 0-.097.023-.1849.07-.2635.047-.08.113-.1427.198-.188.084-.0454.182-.068.294-.068.111 0 .209.0226.296.068.087.0453.154.108.202.188.048.0786.072.1665.072.2635 0 .094-.021.176-.062.248-.043.071-.095.125-.158.162h.722v.182h-1.616v-.182h.202zm.342-.7435c-.083 0-.155.0166-.216.05-.061.0333-.108.0786-.14.136-.032.0555-.048.1175-.048.1855 0 .067.017.129.05.186.032.056.079.102.142.136.061.034.133.05.214.05.083 0 .155-.016.218-.05.061-.034.109-.08.142-.136.032-.057.048-.119.048-.186 0-.068-.016-.13-.048-.1855-.033-.0574-.081-.1027-.142-.136-.063-.0334-.136-.05-.22-.05zm-.722-.5196c0 .0347-.012.064-.036.088-.024.024-.053.036-.088.036-.035 0-.064-.012-.088-.036-.024-.024-.036-.0533-.036-.088 0-.0333.012-.0613.036-.084.024-.024.053-.036.088-.036.035 0 .064.012.088.036.024.0227.036.0507.036.084zm.178-.088H212v.182h-1.096v-.182zm-.02-.8442c0-.1333.041-.2413.122-.324.08-.0826.196-.124.348-.124H212v.18h-.62c-.109 0-.193.0274-.25.082-.059.0547-.088.1294-.088.224 0 .096.03.1727.09.23.06.056.147.084.262.084H212v.182h-1.096v-.182h.156c-.056-.036-.099-.0846-.13-.146-.031-.0626-.046-.1313-.046-.206zm.564-.6773c-.112 0-.21-.0226-.294-.068-.085-.0453-.151-.1073-.198-.186-.047-.08-.07-.1686-.07-.266 0-.096.021-.1793.062-.25.041-.0706.093-.1233.156-.158h-.2v-.184H212v.184h-.204c.064.036.117.09.16.162.041.0707.062.1534.062.248 0 .0974-.024.1854-.072.264-.048.0787-.115.1407-.202.186-.087.0454-.185.068-.296.068zm.002-.928c-.083 0-.155.0167-.216.05-.061.0334-.108.0787-.14.136-.033.056-.05.118-.05.186s.016.13.048.186c.032.056.079.1007.14.134.061.0334.133.05.216.05.084 0 .157-.0166.22-.05.061-.0333.109-.078.142-.134.032-.056.048-.118.048-.186s-.016-.13-.048-.186c-.033-.0573-.081-.1026-.142-.136-.063-.0333-.135-.05-.218-.05zm-.396-.7135h.646c.053 0 .091-.0114.114-.034.021-.0227.032-.062.032-.118v-.134H212v.164c0 .1013-.023.1773-.07.228-.047.0506-.123.076-.23.076h-.646v.142h-.15v-.142h-.276v-.182h.276v-.286h.15v.286zm.394-.4386c-.112 0-.21-.0226-.294-.068-.085-.0453-.151-.1073-.198-.186-.047-.08-.07-.1686-.07-.266 0-.096.021-.1793.062-.25.041-.0706.093-.1233.156-.158h-.2v-.184H212v.184h-.204c.064.036.117.09.16.162.041.0707.062.1534.062.248 0 .0974-.024.1854-.072.264-.048.0787-.115.1407-.202.186-.087.0454-.185.068-.296.068zm.002-.928c-.083 0-.155.0167-.216.05-.061.0334-.108.0787-.14.136-.033.056-.05.118-.05.186s.016.13.048.186c.032.056.079.1007.14.134.061.0334.133.05.216.05.084 0 .157-.0166.22-.05.061-.0333.109-.078.142-.134.032-.056.048-.118.048-.186s-.016-.13-.048-.186c-.033-.0573-.081-.1026-.142-.136-.063-.0333-.135-.05-.218-.05zM31.04 183.31v6.99h7.62v2.25h-7.62v7.2h8.52V202H28.31v-20.94h11.25v2.25h-8.52zm18.7709 16.17l5.1-13.92h2.91l-6.45 16.44h-3.18l-6.45-16.44h2.94l5.13 13.92zm25.6964-6.33c0 .52-.03 1.07-.09 1.65h-13.14c.1 1.62.65 2.89 1.65 3.81 1.02.9 2.25 1.35 3.69 1.35 1.18 0 2.16-.27 2.94-.81.8-.56 1.36-1.3 1.68-2.22h2.94c-.44 1.58-1.32 2.87-2.64 3.87-1.32.98-2.96 1.47-4.92 1.47-1.56 0-2.96-.35-4.2-1.05-1.22-.7-2.18-1.69-2.88-2.97-.7-1.3-1.05-2.8-1.05-4.5 0-1.7.34-3.19 1.02-4.47.68-1.28 1.63-2.26 2.85-2.94 1.24-.7 2.66-1.05 4.26-1.05 1.56 0 2.94.34 4.14 1.02 1.2.68 2.12 1.62 2.76 2.82.66 1.18.99 2.52.99 4.02zm-2.82-.57c0-1.04-.23-1.93-.69-2.67-.46-.76-1.09-1.33-1.89-1.71-.78-.4-1.65-.6-2.61-.6-1.38 0-2.56.44-3.54 1.32-.96.88-1.51 2.1-1.65 3.66h10.38zm14.4335-7.32c2 0 3.62.61 4.86 1.83 1.24 1.2 1.86 2.94 1.86 5.22V202h-2.7v-9.3c0-1.64-.41-2.89-1.23-3.75-.82-.88-1.94-1.32-3.36-1.32-1.44 0-2.59.45-3.45 1.35-.84.9-1.26 2.21-1.26 3.93V202h-2.73v-16.44h2.73v2.34c.54-.84 1.27-1.49 2.19-1.95.94-.46 1.97-.69 3.09-.69zm14.5092 2.55v9.69c0 .8.17 1.37.51 1.71.34.32.93.48 1.77.48h2.01V202h-2.46c-1.52 0-2.66-.35-3.42-1.05-.7598-.7-1.1398-1.85-1.1398-3.45v-9.69h-2.13v-2.25h2.13v-4.14h2.7298v4.14h4.29v2.25h-4.29zm22.226 14.4c-1.38 0-2.62-.24-3.72-.72-1.08-.5-1.93-1.18-2.55-2.04-.62-.88-.94-1.89-.96-3.03h2.91c.1.98.5 1.81 1.2 2.49.72.66 1.76.99 3.12.99 1.3 0 2.32-.32 3.06-.96.76-.66 1.14-1.5 1.14-2.52 0-.8-.22-1.45-.66-1.95-.44-.5-.99-.88-1.65-1.14-.66-.26-1.55-.54-2.67-.84-1.38-.36-2.49-.72-3.33-1.08-.82-.36-1.53-.92-2.13-1.68-.58-.78-.87-1.82-.87-3.12 0-1.14.29-2.15.87-3.03.58-.88 1.39-1.56 2.43-2.04 1.06-.48 2.27-.72 3.63-.72 1.96 0 3.56.49 4.8 1.47 1.26.98 1.97 2.28 2.13 3.9h-3c-.1-.8-.52-1.5-1.26-2.1-.74-.62-1.72-.93-2.94-.93-1.14 0-2.07.3-2.79.9-.72.58-1.08 1.4-1.08 2.46 0 .76.21 1.38.63 1.86.44.48.97.85 1.59 1.11.64.24 1.53.52 2.67.84 1.38.38 2.49.76 3.33 1.14.84.36 1.56.93 2.16 1.71.6.76.9 1.8.9 3.12 0 1.02-.27 1.98-.81 2.88-.54.9-1.34 1.63-2.4 2.19-1.06.56-2.31.84-3.75.84zm13.707-22.41V202h-2.73v-22.2h2.73zm6.063 3.09c-.52 0-.96-.18-1.32-.54-.36-.36-.54-.8-.54-1.32s.18-.96.54-1.32c.36-.36.8-.54 1.32-.54.5 0 .92.18 1.26.54.36.36.54.8.54 1.32s-.18.96-.54 1.32c-.34.36-.76.54-1.26.54zm1.32 2.67V202h-2.73v-16.44h2.73zm3.633 8.16c0-1.68.34-3.15 1.02-4.41.68-1.28 1.61-2.27 2.79-2.97 1.2-.7 2.54-1.05 4.02-1.05 1.28 0 2.47.3 3.57.9 1.1.58 1.94 1.35 2.52 2.31v-8.7h2.76V202h-2.76v-3.09c-.54.98-1.34 1.79-2.4 2.43-1.06.62-2.3.93-3.72.93-1.46 0-2.79-.36-3.99-1.08-1.18-.72-2.11-1.73-2.79-3.03-.68-1.3-1.02-2.78-1.02-4.44zm13.92.03c0-1.24-.25-2.32-.75-3.24-.5-.92-1.18-1.62-2.04-2.1-.84-.5-1.77-.75-2.79-.75s-1.95.24-2.79.72c-.84.48-1.51 1.18-2.01 2.1-.5.92-.75 2-.75 3.24 0 1.26.25 2.36.75 3.3.5.92 1.17 1.63 2.01 2.13.84.48 1.77.72 2.79.72s1.95-.24 2.79-.72c.86-.5 1.54-1.21 2.04-2.13.5-.94.75-2.03.75-3.27zm22.374-.6c0 .52-.03 1.07-.09 1.65h-13.14c.1 1.62.65 2.89 1.65 3.81 1.02.9 2.25 1.35 3.69 1.35 1.18 0 2.16-.27 2.94-.81.8-.56 1.36-1.3 1.68-2.22h2.94c-.44 1.58-1.32 2.87-2.64 3.87-1.32.98-2.96 1.47-4.92 1.47-1.56 0-2.96-.35-4.2-1.05-1.22-.7-2.18-1.69-2.88-2.97-.7-1.3-1.05-2.8-1.05-4.5 0-1.7.34-3.19 1.02-4.47.68-1.28 1.63-2.26 2.85-2.94 1.24-.7 2.66-1.05 4.26-1.05 1.56 0 2.94.34 4.14 1.02 1.2.68 2.12 1.62 2.76 2.82.66 1.18.99 2.52.99 4.02zm-2.82-.57c0-1.04-.23-1.93-.69-2.67-.46-.76-1.09-1.33-1.89-1.71-.78-.4-1.65-.6-2.61-.6-1.38 0-2.56.44-3.54 1.32-.96.88-1.51 2.1-1.65 3.66h10.38zm12.243 9.69c-1.26 0-2.39-.21-3.39-.63-1-.44-1.79-1.04-2.37-1.8-.58-.78-.9-1.67-.96-2.67h2.82c.08.82.46 1.49 1.14 2.01.7.52 1.61.78 2.73.78 1.04 0 1.86-.23 2.46-.69.6-.46.9-1.04.9-1.74 0-.72-.32-1.25-.96-1.59-.64-.36-1.63-.71-2.97-1.05-1.22-.32-2.22-.64-3-.96-.76-.34-1.42-.83-1.98-1.47-.54-.66-.81-1.52-.81-2.58 0-.84.25-1.61.75-2.31s1.21-1.25 2.13-1.65c.92-.42 1.97-.63 3.15-.63 1.82 0 3.29.46 4.41 1.38 1.12.92 1.72 2.18 1.8 3.78h-2.73c-.06-.86-.41-1.55-1.05-2.07-.62-.52-1.46-.78-2.52-.78-.98 0-1.76.21-2.34.63-.58.42-.87.97-.87 1.65 0 .54.17.99.51 1.35.36.34.8.62 1.32.84.54.2 1.28.43 2.22.69 1.18.32 2.14.64 2.88.96.74.3 1.37.76 1.89 1.38.54.62.82 1.43.84 2.43 0 .9-.25 1.71-.75 2.43-.5.72-1.21 1.29-2.13 1.71-.9.4-1.94.6-3.12.6zM44.36 232l-2.73-2.76c-1.02 1.06-2.11 1.85-3.27 2.37-1.16.5-2.47.75-3.93.75-1.44 0-2.72-.26-3.84-.78-1.1-.52-1.96-1.26-2.58-2.22-.6-.96-.9-2.08-.9-3.36 0-1.46.41-2.74 1.23-3.84.84-1.12 2.07-2 3.69-2.64-.64-.76-1.1-1.46-1.38-2.1-.28-.64-.42-1.34-.42-2.1 0-.88.22-1.67.66-2.37.46-.72 1.11-1.28 1.95-1.68.84-.4 1.81-.6 2.91-.6 1.08 0 2.02.21 2.82.63.8.42 1.4 1.01 1.8 1.77.4.74.58 1.57.54 2.49h-2.73c.02-.82-.21-1.46-.69-1.92-.48-.48-1.1-.72-1.86-.72-.8 0-1.45.23-1.95.69-.48.44-.72 1.01-.72 1.71 0 .6.16 1.18.48 1.74.34.56.9 1.25 1.68 2.07l6.24 6.27.54-.84 2.04-3.42h2.94l-2.46 4.26c-.34.6-.74 1.23-1.2 1.89l4.71 4.71h-3.57zm-9.93-1.98c1.08 0 2.05-.21 2.91-.63.88-.42 1.71-1.07 2.49-1.95l-6.15-6.18c-2.56.98-3.84 2.53-3.84 4.65 0 1.18.42 2.16 1.26 2.94.86.78 1.97 1.17 3.33 1.17zm39.8958-12.87c-.58-1.22-1.42-2.16-2.52-2.82-1.1-.68-2.38-1.02-3.84-1.02s-2.78.34-3.96 1.02c-1.16.66-2.08 1.62-2.76 2.88-.66 1.24-.99 2.68-.99 4.32 0 1.64.33 3.08.99 4.32.68 1.24 1.6 2.2 2.76 2.88 1.18.66 2.5.99 3.96.99 2.04 0 3.72-.61 5.04-1.83 1.32-1.22 2.09-2.87 2.31-4.95h-8.34v-2.22h11.25v2.1c-.16 1.72-.7 3.3-1.62 4.74-.92 1.42-2.13 2.55-3.63 3.39-1.5.82-3.17 1.23-5.01 1.23-1.94 0-3.71-.45-5.31-1.35-1.6-.92-2.87-2.19-3.81-3.81-.92-1.62-1.38-3.45-1.38-5.49s.46-3.87 1.38-5.49c.94-1.64 2.21-2.91 3.81-3.81 1.6-.92 3.37-1.38 5.31-1.38 2.22 0 4.18.55 5.88 1.65 1.72 1.1 2.97 2.65 3.75 4.65h-3.27zm14.6796 15.12c-1.54 0-2.94-.35-4.2-1.05-1.24-.7-2.22-1.69-2.94-2.97-.7-1.3-1.05-2.8-1.05-4.5 0-1.68.36-3.16 1.08-4.44.74-1.3 1.74-2.29 3-2.97 1.26-.7 2.67-1.05 4.23-1.05 1.56 0 2.97.35 4.23 1.05 1.26.68 2.25 1.66 2.97 2.94.74 1.28 1.11 2.77 1.11 4.47 0 1.7-.38 3.2-1.14 4.5-.74 1.28-1.75 2.27-3.03 2.97-1.28.7-2.7 1.05-4.26 1.05zm0-2.4c.98 0 1.9-.23 2.76-.69.86-.46 1.55-1.15 2.07-2.07.54-.92.81-2.04.81-3.36 0-1.32-.26-2.44-.78-3.36-.52-.92-1.2-1.6-2.04-2.04-.84-.46-1.75-.69-2.73-.69-1 0-1.92.23-2.76.69-.82.44-1.48 1.12-1.98 2.04-.5.92-.75 2.04-.75 3.36 0 1.34.24 2.47.72 3.39.5.92 1.16 1.61 1.98 2.07.82.44 1.72.66 2.7.66zm19.1896 2.4c-1.54 0-2.94-.35-4.2-1.05-1.24-.7-2.22-1.69-2.94-2.97-.7-1.3-1.05-2.8-1.05-4.5 0-1.68.36-3.16 1.08-4.44.74-1.3 1.74-2.29 3-2.97 1.26-.7 2.67-1.05 4.23-1.05 1.56 0 2.97.35 4.23 1.05 1.26.68 2.25 1.66 2.97 2.94.74 1.28 1.11 2.77 1.11 4.47 0 1.7-.38 3.2-1.14 4.5-.74 1.28-1.75 2.27-3.03 2.97-1.28.7-2.7 1.05-4.26 1.05zm0-2.4c.98 0 1.9-.23 2.76-.69.86-.46 1.55-1.15 2.07-2.07.54-.92.81-2.04.81-3.36 0-1.32-.26-2.44-.78-3.36-.52-.92-1.2-1.6-2.04-2.04-.84-.46-1.75-.69-2.73-.69-1 0-1.92.23-2.76.69-.82.44-1.48 1.12-1.98 2.04-.5.92-.75 2.04-.75 3.36 0 1.34.24 2.47.72 3.39.5.92 1.16 1.61 1.98 2.07.82.44 1.72.66 2.7.66zm10.999-6.15c0-1.68.34-3.15 1.02-4.41.68-1.28 1.61-2.27 2.79-2.97 1.2-.7 2.54-1.05 4.02-1.05 1.28 0 2.47.3 3.57.9 1.1.58 1.94 1.35 2.52 2.31v-8.7h2.76V232h-2.76v-3.09c-.54.98-1.34 1.79-2.4 2.43-1.06.62-2.3.93-3.72.93-1.46 0-2.79-.36-3.99-1.08-1.18-.72-2.11-1.73-2.79-3.03-.68-1.3-1.02-2.78-1.02-4.44zm13.92.03c0-1.24-.25-2.32-.75-3.24-.5-.92-1.18-1.62-2.04-2.1-.84-.5-1.77-.75-2.79-.75s-1.95.24-2.79.72c-.84.48-1.51 1.18-2.01 2.1-.5.92-.75 2-.75 3.24 0 1.26.25 2.36.75 3.3.5.92 1.17 1.63 2.01 2.13.84.48 1.77.72 2.79.72s1.95-.24 2.79-.72c.86-.5 1.54-1.21 2.04-2.13.5-.94.75-2.03.75-3.27zm8.784-10.86c-.52 0-.96-.18-1.32-.54-.36-.36-.54-.8-.54-1.32s.18-.96.54-1.32c.36-.36.8-.54 1.32-.54.5 0 .92.18 1.26.54.36.36.54.8.54 1.32s-.18.96-.54 1.32c-.34.36-.76.54-1.26.54zm1.32 2.67V232h-2.73v-16.44h2.73zm19.653 7.59c0 .52-.03 1.07-.09 1.65h-13.14c.1 1.62.65 2.89 1.65 3.81 1.02.9 2.25 1.35 3.69 1.35 1.18 0 2.16-.27 2.94-.81.8-.56 1.36-1.3 1.68-2.22h2.94c-.44 1.58-1.32 2.87-2.64 3.87-1.32.98-2.96 1.47-4.92 1.47-1.56 0-2.96-.35-4.2-1.05-1.22-.7-2.18-1.69-2.88-2.97-.7-1.3-1.05-2.8-1.05-4.5 0-1.7.34-3.19 1.02-4.47.68-1.28 1.63-2.26 2.85-2.94 1.24-.7 2.66-1.05 4.26-1.05 1.56 0 2.94.34 4.14 1.02 1.2.68 2.12 1.62 2.76 2.82.66 1.18.99 2.52.99 4.02zm-2.82-.57c0-1.04-.23-1.93-.69-2.67-.46-.76-1.09-1.33-1.89-1.71-.78-.4-1.65-.6-2.61-.6-1.38 0-2.56.44-3.54 1.32-.96.88-1.51 2.1-1.65 3.66h10.38zm12.243 9.69c-1.26 0-2.39-.21-3.39-.63-1-.44-1.79-1.04-2.37-1.8-.58-.78-.9-1.67-.96-2.67h2.82c.08.82.46 1.49 1.14 2.01.7.52 1.61.78 2.73.78 1.04 0 1.86-.23 2.46-.69.6-.46.9-1.04.9-1.74 0-.72-.32-1.25-.96-1.59-.64-.36-1.63-.71-2.97-1.05-1.22-.32-2.22-.64-3-.96-.76-.34-1.42-.83-1.98-1.47-.54-.66-.81-1.52-.81-2.58 0-.84.25-1.61.75-2.31s1.21-1.25 2.13-1.65c.92-.42 1.97-.63 3.15-.63 1.82 0 3.29.46 4.41 1.38 1.12.92 1.72 2.18 1.8 3.78h-2.73c-.06-.86-.41-1.55-1.05-2.07-.62-.52-1.46-.78-2.52-.78-.98 0-1.76.21-2.34.63-.58.42-.87.97-.87 1.65 0 .54.17.99.51 1.35.36.34.8.62 1.32.84.54.2 1.28.43 2.22.69 1.18.32 2.14.64 2.88.96.74.3 1.37.76 1.89 1.38.54.62.82 1.43.84 2.43 0 .9-.25 1.71-.75 2.43-.5.72-1.21 1.29-2.13 1.71-.9.4-1.94.6-3.12.6z" fill="#000"/></svg>