<svg width="280" height="261" viewBox="0 0 280 261" xmlns="http://www.w3.org/2000/svg" fill="none"><style>.a{fill:black;}</style><path d="M248.3 222.5C248.3 213.8 241.3 206.7 232.5 206.7 223.8 206.7 216.7 213.8 216.7 222.5 216.7 231.3 223.8 238.3 232.5 238.3 241.3 238.3 248.3 231.3 248.3 222.5ZM232.1 229.5C232 229.3 231.9 229.2 231.9 229.1 231.8 228.9 231.8 228.8 231.8 228.6 231.8 228.4 231.8 228.3 231.9 228.1 231.9 228 232 227.8 232.1 227.7L236.1 223.7H225.9C225.6 223.7 225.3 223.6 225.1 223.4 224.9 223.1 224.7 222.8 224.7 222.5 224.7 222.2 224.9 221.9 225.1 221.6 225.3 221.4 225.6 221.3 225.9 221.3H236.1L232.1 217.3C232 217.2 231.9 217 231.9 216.9 231.8 216.7 231.8 216.6 231.8 216.4 231.8 216.2 231.8 216.1 231.9 215.9 231.9 215.8 232 215.7 232.1 215.5 232.3 215.4 232.4 215.3 232.5 215.3 232.7 215.2 232.9 215.2 233 215.2 233.3 215.2 233.6 215.3 233.9 215.5L239.9 221.6C240.1 221.9 240.3 222.2 240.3 222.5 240.3 222.8 240.1 223.1 239.9 223.4L233.9 229.5C233.8 229.6 233.6 229.7 233.5 229.7 233.3 229.8 233.2 229.8 233 229.8 232.9 229.8 232.7 229.8 232.5 229.7 232.4 229.7 232.3 229.6 232.1 229.5Z" class="a"/><path d="M32.2 145L241.6 131.5 252.9 155.9 46.2 168.7 32.2 145Z" fill="#F6F6F6"/><path d="M186 40V1.5H186.5V40 40.5L186.8 40.9 200.2 60.6 200.5 61.2 201.2 61.3 215.4 63.4 216.5 125.5H197.2V104.4 102.9H195.7 158.3 156.8V104.4 125.5H137.4V59.8 58.3H135.9 122.5V35.5L136.1 33.8 137.4 33.6V32.3 24.1H139.7C149.1 24.1 156.8 31.7 156.8 41.1L155.2 62.4 155 64.5 157 64 167.9 61.2 168.4 61.1 168.7 60.8 185.6 41 186 40.6V40ZM220.8 54.3C220.5 54.5 220.3 54.7 220.1 54.9 220.5 53.5 221 52.2 221.7 51 222.5 49.6 223.4 48.4 224.6 47.6 225.8 46.9 227.3 46.4 229.3 46.4H231.5V50.8H229.3C226.3 50.8 223.2 52.3 220.8 54.3ZM224.2 68.3C223.7 67.5 223.3 66.6 222.8 65.8 227.8 68.5 231.5 72.8 231.5 78.4V80.6H227V78.4C227 75.6 225.8 71.7 224.2 68.3Z" style="stroke-width:3;stroke:black"/><path d="M210.7 121.8C210.7 121.8 210.7 121.8 210.7 121.8 210.7 121.9 210.6 121.9 210.6 121.9 210.6 121.9 210.5 121.9 210.5 121.8 210.5 121.8 210.5 121.8 210.5 121.8 210.5 121.7 210.5 121.7 210.5 121.7 210.5 121.6 210.6 121.6 210.6 121.6 210.6 121.6 210.7 121.6 210.7 121.7 210.7 121.7 210.7 121.7 210.7 121.8ZM210.9 121.7L212 121.7 212 121.8 210.9 121.8 210.9 121.7ZM211.1 121.1L211.7 121.1C211.8 121.1 211.8 121.1 211.8 121.1 211.8 121.1 211.8 121 211.8 121L211.8 120.8 212 120.8 212 121C212 121.1 212 121.2 211.9 121.2 211.9 121.3 211.8 121.3 211.7 121.3L211.1 121.3 211.1 121.5 210.9 121.5 210.9 121.3 210.6 121.3 210.6 121.1 210.9 121.1 210.9 120.8 211.1 120.8 211.1 121.1ZM210.4 120.5L210.8 120.6 210.8 120.7 210.4 120.7 210.4 120.5ZM212 119.9C212 120 212 120.1 212 120.1 211.9 120.2 211.9 120.3 211.9 120.3 211.8 120.3 211.7 120.4 211.7 120.4L211.7 120.2C211.7 120.2 211.8 120.1 211.8 120.1 211.8 120.1 211.9 120 211.9 119.9 211.9 119.9 211.8 119.8 211.8 119.8 211.8 119.7 211.7 119.7 211.7 119.7 211.7 119.7 211.6 119.7 211.6 119.8 211.6 119.8 211.5 119.9 211.5 120 211.5 120 211.5 120.1 211.5 120.2 211.4 120.2 211.4 120.3 211.4 120.3 211.3 120.3 211.3 120.3 211.2 120.3 211.1 120.3 211.1 120.3 211 120.3 211 120.3 211 120.2 210.9 120.2 210.9 120.1 210.9 120 210.9 119.9 210.9 119.8 210.9 119.7 211 119.6 211 119.6 211.1 119.5 211.2 119.5L211.2 119.7C211.2 119.7 211.1 119.7 211.1 119.8 211.1 119.8 211 119.9 211 119.9 211 120 211.1 120.1 211.1 120.1 211.1 120.1 211.1 120.2 211.2 120.2 211.2 120.2 211.3 120.2 211.3 120.1 211.3 120.1 211.3 120.1 211.3 120 211.4 120 211.4 120 211.4 119.9 211.4 119.8 211.4 119.8 211.4 119.7 211.5 119.7 211.5 119.6 211.5 119.6 211.6 119.5 211.6 119.5 211.7 119.5 211.8 119.5 211.8 119.5 211.9 119.6 211.9 119.6 212 119.7 212 119.7 212 119.8 212 119.8 212 119.9ZM212 118.3C212 118.4 212 118.5 212 118.6 211.9 118.6 211.9 118.7 211.9 118.7 211.8 118.8 211.7 118.8 211.7 118.8L211.7 118.6C211.7 118.6 211.8 118.6 211.8 118.5 211.8 118.5 211.9 118.4 211.9 118.3 211.9 118.3 211.8 118.2 211.8 118.2 211.8 118.1 211.7 118.1 211.7 118.1 211.7 118.1 211.6 118.1 211.6 118.2 211.6 118.2 211.5 118.3 211.5 118.4 211.5 118.5 211.5 118.5 211.5 118.6 211.4 118.6 211.4 118.7 211.4 118.7 211.3 118.7 211.3 118.8 211.2 118.8 211.1 118.8 211.1 118.8 211 118.7 211 118.7 211 118.6 210.9 118.6 210.9 118.5 210.9 118.4 210.9 118.4 210.9 118.2 210.9 118.1 211 118.1 211 118 211.1 118 211.2 118L211.2 118.1C211.2 118.1 211.1 118.2 211.1 118.2 211.1 118.2 211 118.3 211 118.4 211 118.4 211.1 118.5 211.1 118.5 211.1 118.6 211.1 118.6 211.2 118.6 211.2 118.6 211.3 118.6 211.3 118.6 211.3 118.5 211.3 118.5 211.3 118.5 211.4 118.4 211.4 118.4 211.4 118.3 211.4 118.2 211.4 118.2 211.4 118.1 211.5 118.1 211.5 118 211.5 118 211.6 118 211.6 117.9 211.7 117.9 211.8 117.9 211.8 118 211.9 118 211.9 118 212 118.1 212 118.1 212 118.2 212 118.3 212 118.3ZM210.9 116.7L212 116.7 212 116.9 211.8 116.9C211.9 116.9 211.9 117 212 117 212 117.1 212 117.2 212 117.2 212 117.3 212 117.4 212 117.5 211.9 117.5 211.9 117.6 211.8 117.6 211.7 117.7 211.6 117.7 211.5 117.7L210.9 117.7 210.9 117.5 211.5 117.5C211.6 117.5 211.7 117.5 211.8 117.4 211.8 117.4 211.9 117.3 211.9 117.2 211.9 117.1 211.8 117 211.8 117 211.7 116.9 211.6 116.9 211.5 116.9L210.9 116.9 210.9 116.7ZM211.1 116.2C211 116.2 211 116.1 211 116.1 210.9 116 210.9 115.9 210.9 115.8 210.9 115.7 210.9 115.6 211 115.5 211 115.5 211.1 115.4 211.2 115.4 211.2 115.3 211.3 115.3 211.4 115.3 211.6 115.3 211.7 115.3 211.7 115.4 211.8 115.4 211.9 115.5 211.9 115.5 212 115.6 212 115.7 212 115.8 212 115.9 212 116 212 116.1 211.9 116.1 211.9 116.2 211.8 116.2L212.5 116.2 212.5 116.4 210.9 116.4 210.9 116.2 211.1 116.2ZM211.4 115.5C211.4 115.5 211.3 115.5 211.2 115.5 211.2 115.6 211.1 115.6 211.1 115.7 211.1 115.7 211 115.8 211 115.9 211 115.9 211.1 116 211.1 116 211.1 116.1 211.2 116.1 211.2 116.2 211.3 116.2 211.4 116.2 211.5 116.2 211.5 116.2 211.6 116.2 211.7 116.2 211.7 116.1 211.8 116.1 211.8 116 211.8 116 211.9 115.9 211.9 115.9 211.9 115.8 211.8 115.7 211.8 115.7 211.8 115.6 211.7 115.6 211.7 115.5 211.6 115.5 211.5 115.5 211.4 115.5ZM211.1 114.9C211 114.8 211 114.8 211 114.7 210.9 114.6 210.9 114.6 210.9 114.5 210.9 114.4 210.9 114.3 211 114.2 211 114.1 211.1 114.1 211.2 114 211.2 114 211.3 113.9 211.4 113.9 211.6 113.9 211.7 114 211.7 114 211.8 114.1 211.9 114.1 211.9 114.2 212 114.3 212 114.4 212 114.5 212 114.6 212 114.6 212 114.7 211.9 114.8 211.9 114.8 211.8 114.9L212.5 114.9 212.5 115.1 210.9 115.1 210.9 114.9 211.1 114.9ZM211.4 114.1C211.4 114.1 211.3 114.1 211.2 114.2 211.2 114.2 211.1 114.3 211.1 114.3 211.1 114.4 211 114.4 211 114.5 211 114.6 211.1 114.6 211.1 114.7 211.1 114.7 211.2 114.8 211.2 114.8 211.3 114.9 211.4 114.9 211.5 114.9 211.5 114.9 211.6 114.9 211.7 114.8 211.7 114.8 211.8 114.7 211.8 114.7 211.8 114.6 211.9 114.6 211.9 114.5 211.9 114.4 211.8 114.4 211.8 114.3 211.8 114.3 211.7 114.2 211.7 114.2 211.6 114.1 211.5 114.1 211.4 114.1ZM212 113.2C212 113.3 212 113.4 211.9 113.5 211.9 113.6 211.8 113.7 211.8 113.7 211.7 113.7 211.6 113.8 211.5 113.8 211.3 113.8 211.2 113.7 211.2 113.7 211.1 113.6 211 113.6 211 113.5 210.9 113.4 210.9 113.3 210.9 113.2 210.9 113.1 210.9 113 211 112.9 211 112.8 211.1 112.8 211.2 112.7 211.2 112.7 211.3 112.7 211.5 112.7 211.6 112.7 211.7 112.7 211.8 112.7 211.8 112.8 211.9 112.9 211.9 112.9 212 113 212 113.1 212 113.2ZM211.9 113.2C211.9 113.2 211.8 113.1 211.8 113 211.8 113 211.7 112.9 211.7 112.9 211.6 112.9 211.5 112.8 211.5 112.8 211.4 112.8 211.3 112.9 211.2 112.9 211.2 112.9 211.1 113 211.1 113 211.1 113.1 211 113.2 211 113.2 211 113.3 211.1 113.3 211.1 113.4 211.1 113.5 211.2 113.5 211.2 113.5 211.3 113.6 211.4 113.6 211.5 113.6 211.5 113.6 211.6 113.6 211.7 113.5 211.7 113.5 211.8 113.5 211.8 113.4 211.8 113.3 211.9 113.3 211.9 113.2ZM212 112C212 112.1 212 112.2 212 112.3 211.9 112.3 211.9 112.4 211.9 112.4 211.8 112.5 211.7 112.5 211.7 112.5L211.7 112.3C211.7 112.3 211.8 112.3 211.8 112.2 211.8 112.2 211.9 112.1 211.9 112 211.9 112 211.8 111.9 211.8 111.9 211.8 111.8 211.7 111.8 211.7 111.8 211.7 111.8 211.6 111.8 211.6 111.9 211.6 111.9 211.5 112 211.5 112.1 211.5 112.2 211.5 112.2 211.5 112.3 211.4 112.3 211.4 112.4 211.4 112.4 211.3 112.4 211.3 112.5 211.2 112.5 211.1 112.5 211.1 112.4 211 112.4 211 112.4 211 112.3 210.9 112.3 210.9 112.2 210.9 112.1 210.9 112.1 210.9 111.9 210.9 111.8 211 111.8 211 111.7 211.1 111.7 211.2 111.6L211.2 111.8C211.2 111.8 211.1 111.9 211.1 111.9 211.1 111.9 211 112 211 112.1 211 112.1 211.1 112.2 211.1 112.2 211.1 112.3 211.1 112.3 211.2 112.3 211.2 112.3 211.3 112.3 211.3 112.2 211.3 112.2 211.3 112.2 211.3 112.2 211.4 112.1 211.4 112.1 211.4 112 211.4 111.9 211.4 111.9 211.4 111.8 211.5 111.8 211.5 111.7 211.5 111.7 211.6 111.7 211.6 111.6 211.7 111.6 211.8 111.6 211.8 111.7 211.9 111.7 211.9 111.7 212 111.8 212 111.8 212 111.9 212 112 212 112ZM211.4 110.4C211.4 110.4 211.5 110.4 211.5 110.4L211.5 111.3C211.6 111.3 211.7 111.2 211.8 111.1 211.8 111.1 211.9 111 211.9 110.9 211.9 110.8 211.8 110.8 211.8 110.7 211.8 110.7 211.7 110.6 211.7 110.6L211.7 110.4C211.8 110.4 211.9 110.5 211.9 110.6 212 110.7 212 110.8 212 110.9 212 111 212 111.1 211.9 111.2 211.9 111.3 211.8 111.3 211.8 111.4 211.7 111.4 211.6 111.4 211.5 111.4 211.3 111.4 211.2 111.4 211.2 111.4 211.1 111.3 211 111.3 211 111.2 210.9 111.1 210.9 111 210.9 110.9 210.9 110.8 210.9 110.7 211 110.6 211 110.5 211.1 110.5 211.1 110.4 211.2 110.4 211.3 110.4 211.4 110.4ZM211.4 110.6C211.3 110.6 211.2 110.6 211.2 110.6 211.1 110.6 211.1 110.7 211.1 110.7 211.1 110.8 211 110.8 211 110.9 211 111 211.1 111.1 211.1 111.1 211.2 111.2 211.3 111.2 211.4 111.3L211.4 110.6ZM211.4 110.2C211.3 110.2 211.2 110.2 211.2 110.1 211.1 110.1 211 110 211 110 210.9 109.9 210.9 109.8 210.9 109.7 210.9 109.6 210.9 109.5 210.9 109.4 211 109.4 211 109.3 211.1 109.3L210.5 109.3 210.5 109.1 212 109.1 212 109.3 211.8 109.3C211.9 109.3 211.9 109.4 212 109.4 212 109.5 212 109.6 212 109.7 212 109.8 212 109.9 211.9 110 211.9 110 211.8 110.1 211.7 110.1 211.7 110.2 211.6 110.2 211.4 110.2ZM211.5 109.3C211.4 109.3 211.3 109.3 211.2 109.3 211.2 109.4 211.1 109.4 211.1 109.5 211.1 109.5 211 109.6 211 109.6 211 109.7 211.1 109.8 211.1 109.8 211.1 109.9 211.2 109.9 211.2 110 211.3 110 211.4 110 211.4 110 211.5 110 211.6 110 211.7 110 211.7 109.9 211.8 109.9 211.8 109.8 211.8 109.8 211.9 109.7 211.9 109.6 211.9 109.6 211.8 109.5 211.8 109.5 211.8 109.4 211.7 109.4 211.7 109.3 211.6 109.3 211.5 109.3 211.5 109.3ZM211.1 108L211.7 108C211.8 108 211.8 108 211.8 108 211.8 108 211.8 107.9 211.8 107.9L211.8 107.7 212 107.7 212 107.9C212 108 212 108.1 211.9 108.1 211.9 108.2 211.8 108.2 211.7 108.2L211.1 108.2 211.1 108.4 210.9 108.4 210.9 108.2 210.6 108.2 210.6 108 210.9 108 210.9 107.7 211.1 107.7 211.1 108ZM212 107C212 107.1 212 107.2 211.9 107.3 211.9 107.4 211.8 107.5 211.8 107.5 211.7 107.6 211.6 107.6 211.5 107.6 211.3 107.6 211.2 107.6 211.2 107.5 211.1 107.5 211 107.4 211 107.3 210.9 107.2 210.9 107.1 210.9 107 210.9 106.9 210.9 106.8 211 106.8 211 106.7 211.1 106.6 211.2 106.6 211.2 106.5 211.3 106.5 211.5 106.5 211.6 106.5 211.7 106.5 211.8 106.6 211.8 106.6 211.9 106.7 211.9 106.8 212 106.8 212 106.9 212 107ZM211.9 107C211.9 107 211.8 106.9 211.8 106.9 211.8 106.8 211.7 106.8 211.7 106.7 211.6 106.7 211.5 106.7 211.5 106.7 211.4 106.7 211.3 106.7 211.2 106.7 211.2 106.8 211.1 106.8 211.1 106.9 211.1 106.9 211 107 211 107 211 107.1 211.1 107.2 211.1 107.2 211.1 107.3 211.2 107.3 211.2 107.4 211.3 107.4 211.4 107.4 211.5 107.4 211.5 107.4 211.6 107.4 211.7 107.4 211.7 107.3 211.8 107.3 211.8 107.2 211.8 107.2 211.9 107.1 211.9 107ZM211.1 105.5C211 105.5 211 105.4 210.9 105.4 210.9 105.3 210.9 105.2 210.9 105.1 210.9 105 210.9 104.9 211 104.9 211 104.8 211.1 104.7 211.2 104.7 211.2 104.6 211.3 104.6 211.4 104.6 211.6 104.6 211.7 104.6 211.7 104.7 211.8 104.7 211.9 104.8 211.9 104.9 212 104.9 212 105 212 105.1 212 105.2 212 105.3 212 105.4 211.9 105.4 211.9 105.5 211.8 105.5L212 105.5 212 105.7 210.5 105.7 210.5 105.5 211.1 105.5ZM211.4 104.8C211.4 104.8 211.3 104.8 211.2 104.8 211.2 104.9 211.1 104.9 211.1 105 211.1 105 211 105.1 211 105.2 211 105.2 211.1 105.3 211.1 105.3 211.1 105.4 211.2 105.4 211.2 105.5 211.3 105.5 211.4 105.5 211.5 105.5 211.5 105.5 211.6 105.5 211.7 105.5 211.7 105.4 211.8 105.4 211.8 105.3 211.8 105.3 211.9 105.2 211.9 105.2 211.9 105.1 211.8 105 211.8 105 211.8 104.9 211.7 104.9 211.7 104.8 211.6 104.8 211.5 104.8 211.4 104.8ZM211.4 103.4C211.4 103.4 211.5 103.4 211.5 103.4L211.5 104.2C211.6 104.2 211.7 104.2 211.8 104.1 211.8 104.1 211.9 104 211.9 103.9 211.9 103.8 211.8 103.7 211.8 103.7 211.8 103.6 211.7 103.6 211.7 103.6L211.7 103.4C211.8 103.4 211.9 103.5 211.9 103.6 212 103.6 212 103.8 212 103.9 212 104 212 104.1 211.9 104.2 211.9 104.2 211.8 104.3 211.8 104.4 211.7 104.4 211.6 104.4 211.5 104.4 211.3 104.4 211.2 104.4 211.2 104.4 211.1 104.3 211 104.3 211 104.2 210.9 104.1 210.9 104 210.9 103.9 210.9 103.8 210.9 103.7 211 103.6 211 103.5 211.1 103.5 211.1 103.4 211.2 103.4 211.3 103.4 211.4 103.4ZM211.4 103.5C211.3 103.5 211.2 103.6 211.2 103.6 211.1 103.6 211.1 103.7 211.1 103.7 211.1 103.8 211 103.8 211 103.9 211 104 211.1 104.1 211.1 104.1 211.2 104.2 211.3 104.2 211.4 104.2L211.4 103.5ZM211.4 102.7C211.3 102.7 211.2 102.6 211.2 102.6 211.1 102.5 211 102.5 211 102.4 210.9 102.3 210.9 102.2 210.9 102.1 210.9 102 210.9 102 210.9 101.9 211 101.8 211 101.8 211.1 101.7L210.9 101.7 210.9 101.5 212 101.5 212 101.7 211.8 101.7C211.9 101.8 211.9 101.8 212 101.9 212 102 212 102 212 102.1 212 102.2 212 102.3 211.9 102.4 211.9 102.5 211.8 102.5 211.7 102.6 211.7 102.6 211.6 102.7 211.4 102.7ZM211.5 101.7C211.4 101.7 211.3 101.7 211.2 101.8 211.2 101.8 211.1 101.9 211.1 101.9 211.1 102 211 102 211 102.1 211 102.2 211.1 102.2 211.1 102.3 211.1 102.3 211.2 102.4 211.2 102.4 211.3 102.5 211.4 102.5 211.4 102.5 211.5 102.5 211.6 102.5 211.7 102.4 211.7 102.4 211.8 102.3 211.8 102.3 211.8 102.2 211.9 102.2 211.9 102.1 211.9 102 211.8 102 211.8 101.9 211.8 101.9 211.7 101.8 211.7 101.8 211.6 101.7 211.5 101.7 211.5 101.7ZM211.1 100.5C211 100.5 211 100.4 211 100.4 210.9 100.3 210.9 100.2 210.9 100.1 210.9 100 210.9 99.9 211 99.8 211 99.8 211.1 99.7 211.2 99.7 211.2 99.6 211.3 99.6 211.4 99.6 211.6 99.6 211.7 99.6 211.7 99.7 211.8 99.7 211.9 99.8 211.9 99.8 212 99.9 212 100 212 100.1 212 100.2 212 100.3 212 100.4 211.9 100.4 211.9 100.5 211.8 100.5L212.5 100.5 212.5 100.7 210.9 100.7 210.9 100.5 211.1 100.5ZM211.4 99.8C211.4 99.8 211.3 99.8 211.2 99.8 211.2 99.9 211.1 99.9 211.1 100 211.1 100 211 100.1 211 100.1 211 100.2 211.1 100.3 211.1 100.3 211.1 100.4 211.2 100.4 211.2 100.5 211.3 100.5 211.4 100.5 211.5 100.5 211.5 100.5 211.6 100.5 211.7 100.5 211.7 100.4 211.8 100.4 211.8 100.3 211.8 100.3 211.9 100.2 211.9 100.1 211.9 100.1 211.8 100 211.8 100 211.8 99.9 211.7 99.9 211.7 99.8 211.6 99.8 211.5 99.8 211.4 99.8ZM210.7 99.3C210.7 99.3 210.7 99.3 210.7 99.3 210.7 99.4 210.6 99.4 210.6 99.4 210.6 99.4 210.5 99.4 210.5 99.3 210.5 99.3 210.5 99.3 210.5 99.3 210.5 99.2 210.5 99.2 210.5 99.2 210.5 99.1 210.6 99.1 210.6 99.1 210.6 99.1 210.7 99.1 210.7 99.2 210.7 99.2 210.7 99.2 210.7 99.3ZM210.9 99.2L212 99.2 212 99.3 210.9 99.3 210.9 99.2ZM210.9 98.3C210.9 98.2 210.9 98.1 211 98 211.1 97.9 211.2 97.9 211.4 97.9L212 97.9 212 98.1 211.4 98.1C211.3 98.1 211.2 98.1 211.1 98.1 211.1 98.2 211 98.3 211 98.4 211 98.5 211.1 98.5 211.1 98.6 211.2 98.6 211.3 98.7 211.4 98.7L212 98.7 212 98.9 210.9 98.9 210.9 98.7 211.1 98.7C211 98.6 211 98.6 210.9 98.5 210.9 98.5 210.9 98.4 210.9 98.3ZM211.4 97.6C211.3 97.6 211.2 97.6 211.2 97.6 211.1 97.5 211 97.5 211 97.4 210.9 97.3 210.9 97.2 210.9 97.1 210.9 97 210.9 96.9 210.9 96.9 211 96.8 211 96.8 211.1 96.7L210.9 96.7 210.9 96.5 212 96.5 212 96.7 211.8 96.7C211.9 96.8 211.9 96.8 212 96.9 212 97 212 97 212 97.1 212 97.2 212 97.3 211.9 97.4 211.9 97.5 211.8 97.5 211.7 97.6 211.7 97.6 211.6 97.6 211.4 97.6ZM211.5 96.7C211.4 96.7 211.3 96.7 211.2 96.8 211.2 96.8 211.1 96.8 211.1 96.9 211.1 97 211 97 211 97.1 211 97.2 211.1 97.2 211.1 97.3 211.1 97.3 211.2 97.4 211.2 97.4 211.3 97.4 211.4 97.5 211.4 97.5 211.5 97.5 211.6 97.4 211.7 97.4 211.7 97.4 211.8 97.3 211.8 97.3 211.8 97.2 211.9 97.2 211.9 97.1 211.9 97 211.8 97 211.8 96.9 211.8 96.8 211.7 96.8 211.7 96.8 211.6 96.7 211.5 96.7 211.5 96.7ZM211.1 96L211.7 96C211.8 96 211.8 96 211.8 96 211.8 95.9 211.8 95.9 211.8 95.9L211.8 95.7 212 95.7 212 95.9C212 96 212 96.1 211.9 96.1 211.9 96.2 211.8 96.2 211.7 96.2L211.1 96.2 211.1 96.3 210.9 96.3 210.9 96.2 210.6 96.2 210.6 96 210.9 96 210.9 95.7 211.1 95.7 211.1 96ZM211.4 95.6C211.3 95.6 211.2 95.5 211.2 95.5 211.1 95.5 211 95.4 211 95.3 210.9 95.2 210.9 95.1 210.9 95 210.9 95 210.9 94.9 210.9 94.8 211 94.7 211 94.7 211.1 94.6L210.9 94.6 210.9 94.5 212 94.5 212 94.6 211.8 94.6C211.9 94.7 211.9 94.7 212 94.8 212 94.9 212 95 212 95 212 95.1 212 95.2 211.9 95.3 211.9 95.4 211.8 95.5 211.7 95.5 211.7 95.5 211.6 95.6 211.4 95.6ZM211.5 94.6C211.4 94.6 211.3 94.7 211.2 94.7 211.2 94.7 211.1 94.8 211.1 94.8 211.1 94.9 211 94.9 211 95 211 95.1 211.1 95.1 211.1 95.2 211.1 95.3 211.2 95.3 211.2 95.3 211.3 95.4 211.4 95.4 211.4 95.4 211.5 95.4 211.6 95.4 211.7 95.3 211.7 95.3 211.8 95.3 211.8 95.2 211.8 95.1 211.9 95.1 211.9 95 211.9 94.9 211.8 94.9 211.8 94.8 211.8 94.8 211.7 94.7 211.7 94.7 211.6 94.7 211.5 94.6 211.5 94.6Z" class="a"/><path d="M34.9 202.2C33.6 202.2 32.3 202 31.2 201.5 30.1 201 29.3 200.3 28.7 199.5 28.1 198.6 27.7 197.6 27.7 196.4H30.6C30.7 197.4 31.1 198.2 31.8 198.9 32.5 199.6 33.6 199.9 34.9 199.9 36.2 199.9 37.3 199.6 38 198.9 38.8 198.3 39.1 197.4 39.1 196.4 39.1 195.6 38.9 195 38.5 194.5 38 194 37.5 193.6 36.8 193.3 36.2 193.1 35.3 192.8 34.2 192.5 32.8 192.1 31.7 191.8 30.8 191.4 30 191.1 29.3 190.5 28.7 189.7 28.1 189 27.8 187.9 27.8 186.6 27.8 185.5 28.1 184.5 28.7 183.6 29.3 182.7 30.1 182 31.1 181.5 32.2 181.1 33.4 180.8 34.8 180.8 36.7 180.8 38.3 181.3 39.6 182.3 40.8 183.3 41.5 184.6 41.7 186.2H38.7C38.6 185.4 38.2 184.7 37.4 184.1 36.7 183.5 35.7 183.2 34.5 183.2 33.4 183.2 32.4 183.5 31.7 184.1 31 184.6 30.6 185.5 30.6 186.5 30.6 187.3 30.8 187.9 31.3 188.4 31.7 188.9 32.2 189.2 32.8 189.5 33.5 189.7 34.4 190 35.5 190.3 36.9 190.7 38 191.1 38.8 191.5 39.7 191.8 40.4 192.4 41 193.2 41.6 193.9 41.9 195 41.9 196.3 41.9 197.3 41.6 198.3 41.1 199.2 40.6 200.1 39.8 200.8 38.7 201.4 37.6 201.9 36.4 202.2 34.9 202.2ZM48.6 179.8V202H45.9V179.8H48.6ZM54.7 182.9C54.2 182.9 53.8 182.7 53.4 182.4 53 182 52.9 181.6 52.9 181 52.9 180.5 53 180.1 53.4 179.7 53.8 179.4 54.2 179.2 54.7 179.2 55.2 179.2 55.6 179.4 56 179.7 56.3 180.1 56.5 180.5 56.5 181 56.5 181.6 56.3 182 56 182.4 55.6 182.7 55.2 182.9 54.7 182.9ZM56 185.6V202H53.3V185.6H56ZM59.7 193.7C59.7 192 60 190.6 60.7 189.3 61.4 188 62.3 187 63.5 186.3 64.7 185.6 66 185.3 67.5 185.3 68.8 185.3 70 185.6 71.1 186.2 72.2 186.8 73 187.5 73.6 188.5V179.8H76.3V202H73.6V198.9C73 199.9 72.2 200.7 71.2 201.3 70.1 202 68.9 202.3 67.5 202.3 66 202.3 64.7 201.9 63.5 201.2 62.3 200.5 61.4 199.5 60.7 198.2 60 196.9 59.7 195.4 59.7 193.7ZM73.6 193.8C73.6 192.5 73.3 191.4 72.8 190.5 72.3 189.6 71.7 188.9 70.8 188.4 70 187.9 69 187.7 68 187.7 67 187.7 66.1 187.9 65.2 188.4 64.4 188.9 63.7 189.6 63.2 190.5 62.7 191.4 62.5 192.5 62.5 193.7 62.5 195 62.7 196.1 63.2 197 63.7 197.9 64.4 198.7 65.2 199.2 66.1 199.6 67 199.9 68 199.9 69 199.9 70 199.6 70.8 199.2 71.7 198.7 72.3 197.9 72.8 197 73.3 196.1 73.6 195 73.6 193.8ZM96 193.2C96 193.7 95.9 194.2 95.9 194.8H82.7C82.8 196.4 83.4 197.7 84.4 198.6 85.4 199.5 86.6 200 88.1 200 89.2 200 90.2 199.7 91 199.2 91.8 198.6 92.4 197.9 92.7 196.9H95.6C95.2 198.5 94.3 199.8 93 200.8 91.7 201.8 90 202.3 88.1 202.3 86.5 202.3 85.1 201.9 83.9 201.2 82.6 200.5 81.7 199.5 81 198.3 80.3 197 79.9 195.5 79.9 193.8 79.9 192.1 80.3 190.6 81 189.3 81.6 188 82.6 187 83.8 186.3 85 185.6 86.5 185.3 88.1 185.3 89.6 185.3 91 185.6 92.2 186.3 93.4 187 94.3 187.9 95 189.1 95.6 190.3 96 191.7 96 193.2ZM93.1 192.6C93.1 191.5 92.9 190.7 92.4 189.9 92 189.2 91.4 188.6 90.6 188.2 89.8 187.8 88.9 187.6 87.9 187.6 86.6 187.6 85.4 188 84.4 188.9 83.4 189.8 82.9 191 82.8 192.6H93.1ZM124 202H121.3L110.3 185.4V202H107.6V181.1H110.3L121.3 197.7V181.1H124V202ZM135.8 202.3C134.3 202.3 132.9 201.9 131.6 201.2 130.4 200.5 129.4 199.5 128.7 198.3 128 197 127.6 195.5 127.6 193.8 127.6 192.1 128 190.6 128.7 189.3 129.5 188 130.5 187 131.7 186.3 133 185.6 134.4 185.3 135.9 185.3 137.5 185.3 138.9 185.6 140.2 186.3 141.4 187 142.4 188 143.1 189.3 143.9 190.6 144.3 192.1 144.3 193.8 144.3 195.5 143.9 197 143.1 198.3 142.4 199.5 141.4 200.5 140.1 201.2 138.8 201.9 137.4 202.3 135.8 202.3ZM135.8 199.9C136.8 199.9 137.7 199.6 138.6 199.2 139.4 198.7 140.1 198 140.7 197.1 141.2 196.2 141.5 195.1 141.5 193.8 141.5 192.4 141.2 191.3 140.7 190.4 140.2 189.5 139.5 188.8 138.6 188.4 137.8 187.9 136.9 187.7 135.9 187.7 134.9 187.7 134 187.9 133.2 188.4 132.3 188.8 131.7 189.5 131.2 190.4 130.7 191.3 130.4 192.4 130.4 193.8 130.4 195.1 130.7 196.2 131.1 197.1 131.6 198.1 132.3 198.8 133.1 199.2 133.9 199.7 134.8 199.9 135.8 199.9ZM151.2 187.8V197.5C151.2 198.3 151.3 198.9 151.7 199.2 152 199.5 152.6 199.7 153.5 199.7H155.5V202H153C151.5 202 150.3 201.7 149.6 201 148.8 200.3 148.4 199.1 148.4 197.5V187.8H146.3V185.6H148.4V181.4H151.2V185.6H155.5V187.8H151.2ZM173.8 193.2C173.8 193.7 173.7 194.2 173.7 194.8H160.5C160.6 196.4 161.2 197.7 162.2 198.6 163.2 199.5 164.4 200 165.9 200 167.1 200 168 199.7 168.8 199.2 169.6 198.6 170.2 197.9 170.5 196.9H173.4C173 198.5 172.1 199.8 170.8 200.8 169.5 201.8 167.8 202.3 165.9 202.3 164.3 202.3 162.9 201.9 161.7 201.2 160.5 200.5 159.5 199.5 158.8 198.3 158.1 197 157.7 195.5 157.7 193.8 157.7 192.1 158.1 190.6 158.8 189.3 159.4 188 160.4 187 161.6 186.3 162.9 185.6 164.3 185.3 165.9 185.3 167.4 185.3 168.8 185.6 170 186.3 171.2 187 172.1 187.9 172.8 189.1 173.4 190.3 173.8 191.7 173.8 193.2ZM170.9 192.6C170.9 191.5 170.7 190.7 170.3 189.9 169.8 189.2 169.2 188.6 168.4 188.2 167.6 187.8 166.7 187.6 165.8 187.6 164.4 187.6 163.2 188 162.2 188.9 161.3 189.8 160.7 191 160.6 192.6H170.9ZM183.2 202.3C181.9 202.3 180.8 202.1 179.8 201.6 178.8 201.2 178 200.6 177.4 199.8 176.9 199.1 176.5 198.2 176.5 197.2H179.3C179.4 198 179.8 198.7 180.4 199.2 181.1 199.7 182 200 183.2 200 184.2 200 185 199.7 185.6 199.3 186.2 198.8 186.5 198.2 186.5 197.5 186.5 196.8 186.2 196.3 185.6 195.9 184.9 195.6 183.9 195.2 182.6 194.9 181.4 194.6 180.4 194.3 179.6 193.9 178.8 193.6 178.2 193.1 177.6 192.5 177.1 191.8 176.8 190.9 176.8 189.9 176.8 189 177.1 188.3 177.6 187.6 178.1 186.9 178.8 186.3 179.7 185.9 180.6 185.5 181.7 185.3 182.8 185.3 184.7 185.3 186.1 185.8 187.2 186.7 188.4 187.6 189 188.9 189 190.5H186.3C186.3 189.6 185.9 188.9 185.3 188.4 184.6 187.9 183.8 187.6 182.7 187.6 181.8 187.6 181 187.8 180.4 188.2 179.8 188.7 179.5 189.2 179.5 189.9 179.5 190.4 179.7 190.9 180 191.2 180.4 191.6 180.8 191.9 181.4 192.1 181.9 192.3 182.6 192.5 183.6 192.8 184.8 193.1 185.7 193.4 186.5 193.7 187.2 194 187.8 194.5 188.4 195.1 188.9 195.7 189.2 196.5 189.2 197.5 189.2 198.4 188.9 199.2 188.4 200 187.9 200.7 187.2 201.3 186.3 201.7 185.4 202.1 184.4 202.3 183.2 202.3ZM44.4 232L41.6 229.2C40.6 230.3 39.5 231.1 38.4 231.6 37.2 232.1 35.9 232.4 34.4 232.4 33 232.4 31.7 232.1 30.6 231.6 29.5 231.1 28.6 230.3 28 229.4 27.4 228.4 27.1 227.3 27.1 226 27.1 224.5 27.5 223.3 28.3 222.2 29.2 221 30.4 220.2 32 219.5 31.4 218.8 30.9 218.1 30.7 217.4 30.4 216.8 30.2 216.1 30.2 215.3 30.2 214.4 30.5 213.7 30.9 213 31.4 212.2 32 211.7 32.8 211.3 33.7 210.9 34.7 210.7 35.8 210.7 36.8 210.7 37.8 210.9 38.6 211.3 39.4 211.7 40 212.3 40.4 213.1 40.8 213.8 41 214.6 40.9 215.6H38.2C38.2 214.7 38 214.1 37.5 213.6 37 213.2 36.4 212.9 35.6 212.9 34.8 212.9 34.2 213.2 33.7 213.6 33.2 214.1 33 214.6 33 215.3 33 215.9 33.1 216.5 33.4 217.1 33.8 217.6 34.3 218.3 35.1 219.1L41.4 225.4 41.9 224.6 43.9 221.1H46.9L44.4 225.4C44.1 226 43.7 226.6 43.2 227.3L47.9 232H44.4ZM34.4 230C35.5 230 36.5 229.8 37.3 229.4 38.2 229 39.1 228.3 39.8 227.4L33.7 221.3C31.1 222.2 29.8 223.8 29.8 225.9 29.8 227.1 30.3 228.1 31.1 228.9 32 229.6 33.1 230 34.4 230ZM74.3 217.2C73.7 215.9 72.9 215 71.8 214.3 70.7 213.7 69.4 213.3 68 213.3 66.5 213.3 65.2 213.7 64 214.3 62.8 215 61.9 216 61.2 217.2 60.6 218.5 60.3 219.9 60.3 221.5 60.3 223.2 60.6 224.6 61.2 225.9 61.9 227.1 62.8 228.1 64 228.7 65.2 229.4 66.5 229.7 68 229.7 70 229.7 71.7 229.1 73 227.9 74.3 226.7 75.1 225 75.3 222.9H67V220.7H78.2V222.8C78.1 224.5 77.5 226.1 76.6 227.6 75.7 229 74.5 230.1 73 231 71.5 231.8 69.8 232.2 68 232.2 66 232.2 64.3 231.7 62.7 230.8 61.1 229.9 59.8 228.6 58.8 227 57.9 225.4 57.5 223.6 57.5 221.5 57.5 219.5 57.9 217.7 58.8 216 59.8 214.4 61.1 213.1 62.7 212.2 64.3 211.3 66 210.9 68 210.9 70.2 210.9 72.1 211.4 73.8 212.5 75.6 213.6 76.8 215.2 77.6 217.2H74.3ZM89 232.3C87.5 232.3 86.1 231.9 84.8 231.2 83.6 230.5 82.6 229.5 81.9 228.3 81.2 227 80.8 225.5 80.8 223.8 80.8 222.1 81.2 220.6 81.9 219.3 82.6 218 83.6 217 84.9 216.3 86.2 215.6 87.6 215.3 89.1 215.3 90.7 215.3 92.1 215.6 93.4 216.3 94.6 217 95.6 218 96.3 219.3 97.1 220.6 97.4 222.1 97.4 223.8 97.4 225.5 97.1 227 96.3 228.3 95.6 229.5 94.5 230.5 93.3 231.2 92 231.9 90.6 232.3 89 232.3ZM89 229.9C90 229.9 90.9 229.6 91.8 229.2 92.6 228.7 93.3 228 93.8 227.1 94.4 226.2 94.6 225.1 94.6 223.8 94.6 222.4 94.4 221.3 93.9 220.4 93.3 219.5 92.7 218.8 91.8 218.4 91 217.9 90.1 217.7 89.1 217.7 88.1 217.7 87.2 217.9 86.3 218.4 85.5 218.8 84.9 219.5 84.4 220.4 83.9 221.3 83.6 222.4 83.6 223.8 83.6 225.1 83.8 226.2 84.3 227.1 84.8 228.1 85.5 228.8 86.3 229.2 87.1 229.7 88 229.9 89 229.9ZM108.2 232.3C106.7 232.3 105.3 231.9 104 231.2 102.8 230.5 101.8 229.5 101.1 228.3 100.4 227 100 225.5 100 223.8 100 222.1 100.4 220.6 101.1 219.3 101.8 218 102.8 217 104.1 216.3 105.3 215.6 106.8 215.3 108.3 215.3 109.9 215.3 111.3 215.6 112.5 216.3 113.8 217 114.8 218 115.5 219.3 116.3 220.6 116.6 222.1 116.6 223.8 116.6 225.5 116.2 227 115.5 228.3 114.7 229.5 113.7 230.5 112.5 231.2 111.2 231.9 109.8 232.3 108.2 232.3ZM108.2 229.9C109.2 229.9 110.1 229.6 111 229.2 111.8 228.7 112.5 228 113 227.1 113.6 226.2 113.8 225.1 113.8 223.8 113.8 222.4 113.6 221.3 113.1 220.4 112.5 219.5 111.9 218.8 111 218.4 110.2 217.9 109.3 217.7 108.3 217.7 107.3 217.7 106.4 217.9 105.5 218.4 104.7 218.8 104 219.5 103.5 220.4 103 221.3 102.8 222.4 102.8 223.8 102.8 225.1 103 226.2 103.5 227.1 104 228.1 104.7 228.8 105.5 229.2 106.3 229.7 107.2 229.9 108.2 229.9ZM119.2 223.7C119.2 222 119.5 220.6 120.2 219.3 120.9 218 121.8 217 123 216.3 124.2 215.6 125.5 215.3 127 215.3 128.3 215.3 129.5 215.6 130.6 216.2 131.7 216.8 132.5 217.5 133.1 218.5V209.8H135.9V232H133.1V228.9C132.6 229.9 131.8 230.7 130.7 231.3 129.7 232 128.4 232.3 127 232.3 125.5 232.3 124.2 231.9 123 231.2 121.8 230.5 120.9 229.5 120.2 228.2 119.5 226.9 119.2 225.4 119.2 223.7ZM133.1 223.8C133.1 222.5 132.9 221.4 132.4 220.5 131.9 219.6 131.2 218.9 130.3 218.4 129.5 217.9 128.6 217.7 127.5 217.7 126.5 217.7 125.6 217.9 124.7 218.4 123.9 218.9 123.2 219.6 122.7 220.5 122.2 221.4 122 222.5 122 223.7 122 225 122.2 226.1 122.7 227 123.2 227.9 123.9 228.7 124.7 229.2 125.6 229.6 126.5 229.9 127.5 229.9 128.6 229.9 129.5 229.6 130.3 229.2 131.2 228.7 131.9 227.9 132.4 227 132.9 226.1 133.1 225 133.1 223.8ZM141.9 212.9C141.4 212.9 140.9 212.7 140.6 212.4 140.2 212 140 211.6 140 211 140 210.5 140.2 210.1 140.6 209.7 140.9 209.4 141.4 209.2 141.9 209.2 142.4 209.2 142.8 209.4 143.2 209.7 143.5 210.1 143.7 210.5 143.7 211 143.7 211.6 143.5 212 143.2 212.4 142.8 212.7 142.4 212.9 141.9 212.9ZM143.2 215.6V232H140.5V215.6H143.2ZM162.9 223.2C162.9 223.7 162.8 224.2 162.8 224.8H149.6C149.7 226.4 150.3 227.7 151.3 228.6 152.3 229.5 153.5 230 155 230 156.2 230 157.1 229.7 157.9 229.2 158.7 228.6 159.3 227.9 159.6 226.9H162.5C162.1 228.5 161.2 229.8 159.9 230.8 158.6 231.8 156.9 232.3 155 232.3 153.4 232.3 152 231.9 150.8 231.2 149.6 230.5 148.6 229.5 147.9 228.3 147.2 227 146.9 225.5 146.9 223.8 146.9 222.1 147.2 220.6 147.9 219.3 148.6 218 149.5 217 150.7 216.3 152 215.6 153.4 215.3 155 215.3 156.5 215.3 157.9 215.6 159.1 216.3 160.3 217 161.2 217.9 161.9 219.1 162.5 220.3 162.9 221.7 162.9 223.2ZM160.1 222.6C160.1 221.5 159.8 220.7 159.4 219.9 158.9 219.2 158.3 218.6 157.5 218.2 156.7 217.8 155.8 217.6 154.9 217.6 153.5 217.6 152.3 218 151.3 218.9 150.4 219.8 149.8 221 149.7 222.6H160.1ZM172.3 232.3C171 232.3 169.9 232.1 168.9 231.6 167.9 231.2 167.1 230.6 166.5 229.8 166 229.1 165.6 228.2 165.6 227.2H168.4C168.5 228 168.9 228.7 169.5 229.2 170.2 229.7 171.1 230 172.3 230 173.3 230 174.1 229.7 174.7 229.3 175.3 228.8 175.6 228.2 175.6 227.5 175.6 226.8 175.3 226.3 174.7 225.9 174 225.6 173 225.2 171.7 224.9 170.5 224.6 169.5 224.3 168.7 223.9 167.9 223.6 167.3 223.1 166.7 222.5 166.2 221.8 165.9 220.9 165.9 219.9 165.9 219 166.2 218.3 166.7 217.6 167.2 216.9 167.9 216.3 168.8 215.9 169.7 215.5 170.8 215.3 171.9 215.3 173.8 215.3 175.2 215.8 176.3 216.7 177.5 217.6 178.1 218.9 178.1 220.5H175.4C175.4 219.6 175 218.9 174.4 218.4 173.7 217.9 172.9 217.6 171.8 217.6 170.9 217.6 170.1 217.8 169.5 218.2 168.9 218.7 168.6 219.2 168.6 219.9 168.6 220.4 168.8 220.9 169.1 221.2 169.5 221.6 169.9 221.9 170.5 222.1 171 222.3 171.7 222.5 172.7 222.8 173.9 223.1 174.8 223.4 175.6 223.7 176.3 224 176.9 224.5 177.5 225.1 178 225.7 178.3 226.5 178.3 227.5 178.3 228.4 178 229.2 177.5 230 177 230.7 176.3 231.3 175.4 231.7 174.5 232.1 173.5 232.3 172.3 232.3Z" class="a"/></svg>