<svg fill="none" xmlns="http://www.w3.org/2000/svg" viewBox="0 0 222 170"><path d="M.171195 145L209.612 131.478l11.311 24.42-206.7722 12.837L.171195 145z" fill="#F6F6F6"/><path d="M153.967 40.0492V1.5h.533v39.0103l.259.3815 13.398 19.7302.37.5449.652.0963 14.213 2.0999 1.147 62.1369h-19.372v-22.572h-40.334V125.5h-19.4V58.2793H90.5V35.4952l13.619-1.6966 1.314-.1638v-9.5625h2.234c9.449 0 17.135 7.6474 17.166 17.0457l-1.675 21.2642-.164 2.0788 2.023-.5058 10.882-2.7207.463-.1159.312-.3625 16.931-19.7301.362-.4215v-.5553zm34.787 14.2689c-.223.1805-.443.3667-.658.5581.433-1.4116.936-2.7126 1.559-3.8598.795-1.4624 1.748-2.5985 2.936-3.3743 1.176-.7683 2.676-1.2456 4.676-1.2456h2.233v4.4414h-2.233c-2.993 0-6.069 1.4996-8.513 3.4802zm3.421 13.9977c-.428-.8653-.897-1.7126-1.399-2.5115 5.069 2.6492 8.724 6.9566 8.724 12.5785v2.2207h-4.467v-2.2207c0-2.75-1.185-6.6842-2.858-10.067z" stroke="#000" stroke-width="3"/></svg>