<svg width="222" height="170" fill="none" xmlns="http://www.w3.org/2000/svg"><path d="M.171195 145L209.612 131.478l11.311 24.42-206.7722 12.837L.171195 145z" fill="#F6F6F6"/><path d="M153.967 40.0492V1.5h.533v39.0103l.259.3815 13.398 19.7302.37.5449.652.0963 14.213 2.0999 1.147 62.1369h-19.372v-22.572h-40.334V125.5h-19.4V58.2793H90.5V35.4952l13.619-1.6966 1.314-.1638v-9.5625h2.234c9.449 0 17.135 7.6474 17.166 17.0457l-1.675 21.2642-.164 2.0788 2.023-.5058 10.882-2.7207.463-.1159.312-.3625 16.931-19.7301.362-.4215v-.5553zm34.787 14.2689c-.223.1805-.443.3667-.658.5581.433-1.4116.936-2.7126 1.559-3.8598.795-1.4624 1.748-2.5985 2.936-3.3743 1.176-.7683 2.676-1.2456 4.676-1.2456h2.233v4.4414h-2.233c-2.993 0-6.069 1.4996-8.513 3.4802zm3.421 13.9977c-.428-.8653-.897-1.7126-1.399-2.5115 5.069 2.6492 8.724 6.9566 8.724 12.5785v2.2207h-4.467v-2.2207c0-2.75-1.185-6.6842-2.858-10.067z" stroke="#000" stroke-width="3"/><path d="M178.726 121.752c0 .035-.012.064-.036.088-.024.024-.053.036-.088.036-.035 0-.064-.012-.088-.036-.024-.024-.036-.053-.036-.088 0-.033.012-.061.036-.084.024-.024.053-.036.088-.036.035 0 .064.012.088.036.024.023.036.051.036.084zm.178-.088H180v.182h-1.096v-.182zm.15-.532h.646c.053 0 .091-.012.114-.034.021-.023.032-.062.032-.118v-.134H180v.164c0 .101-.023.177-.07.228-.047.05-.123.076-.23.076h-.646v.142h-.15v-.142h-.276v-.182h.276v-.286h.15v.286zm-.646-.599l.398.024v.126l-.398.026v-.176zm1.61-.614c0 .084-.014.159-.042.226-.029.067-.069.119-.12.158-.052.039-.111.06-.178.064v-.188c.055-.005.099-.031.134-.076.035-.047.052-.107.052-.182 0-.069-.015-.124-.046-.164-.031-.04-.069-.06-.116-.06-.048 0-.083.021-.106.064-.024.043-.047.109-.07.198-.021.081-.043.148-.064.2-.023.051-.055.095-.098.132-.044.036-.101.054-.172.054-.056 0-.107-.017-.154-.05s-.083-.081-.11-.142c-.028-.061-.042-.131-.042-.21 0-.121.031-.219.092-.294.061-.075.145-.115.252-.12v.182c-.057.004-.103.027-.138.07-.035.041-.052.097-.052.168 0 .065.014.117.042.156.028.039.065.058.11.058.036 0 .066-.011.09-.034.023-.024.041-.053.056-.088.013-.036.029-.085.046-.148.021-.079.043-.143.064-.192.02-.049.051-.091.092-.126.041-.036.095-.055.162-.056.06 0 .114.017.162.05s.086.081.114.142c.027.06.04.129.04.208zm0-1.578c0 .084-.014.159-.042.226-.029.066-.069.119-.12.158-.052.038-.111.06-.178.064v-.188c.055-.006.099-.031.134-.076.035-.047.052-.108.052-.182 0-.07-.015-.124-.046-.164-.031-.04-.069-.06-.116-.06-.048 0-.083.021-.106.064-.024.042-.047.108-.07.198-.021.081-.043.148-.064.2-.023.05-.055.094-.098.132-.044.036-.101.054-.172.054-.056 0-.107-.017-.154-.05-.047-.034-.083-.081-.11-.142-.028-.062-.042-.132-.042-.21 0-.122.031-.22.092-.294.061-.075.145-.115.252-.12v.182c-.057.004-.103.027-.138.07-.035.041-.052.097-.052.168 0 .065.014.117.042.156.028.038.065.058.11.058.036 0 .066-.012.09-.034.023-.024.041-.054.056-.088.013-.036.029-.086.046-.148.021-.079.043-.143.064-.192.02-.05.051-.092.092-.126.041-.036.095-.055.162-.056.06 0 .114.016.162.05.048.033.086.08.114.142.027.06.04.129.04.208zm-1.114-1.629H180v.182h-.162c.056.035.1.083.132.146.031.061.046.129.046.204 0 .085-.017.162-.052.23-.036.068-.089.122-.16.162-.071.039-.157.058-.258.058h-.642v-.18h.618c.108 0 .191-.027.25-.082.057-.055.086-.129.086-.224 0-.097-.03-.174-.09-.23-.06-.056-.147-.084-.262-.084h-.602v-.182zm.202-.489c-.063-.036-.115-.09-.156-.16-.043-.072-.064-.156-.064-.25 0-.098.023-.186.07-.264.047-.08.113-.143.198-.188.084-.046.182-.068.294-.068.111 0 .209.022.296.068.087.045.154.108.202.188.048.078.072.166.072.264 0 .093-.021.176-.062.248-.043.07-.095.124-.158.162h.722v.182h-1.616v-.182h.202zm.342-.744c-.083 0-.155.016-.216.05-.061.033-.108.078-.14.136-.032.056-.048.118-.048.186 0 .066.017.128.05.186.032.056.079.101.142.136.061.033.133.05.214.05.083 0 .155-.017.218-.05.061-.035.109-.08.142-.136.032-.058.048-.12.048-.186 0-.068-.016-.13-.048-.186-.033-.058-.081-.103-.142-.136-.063-.034-.136-.05-.22-.05zm-.342-.608c-.063-.036-.115-.089-.156-.16-.043-.072-.064-.155-.064-.25 0-.097.023-.185.07-.264.047-.08.113-.143.198-.188.084-.045.182-.068.294-.068.111 0 .209.023.296.068.087.045.154.108.202.188.048.079.072.167.072.264 0 .093-.021.176-.062.248-.043.071-.095.125-.158.162h.722v.182h-1.616v-.182h.202zm.342-.744c-.083 0-.155.017-.216.05s-.108.079-.14.136c-.032.056-.048.118-.048.186 0 .067.017.129.05.186.032.056.079.101.142.136.061.033.133.05.214.05.083 0 .155-.017.218-.05.061-.035.109-.08.142-.136.032-.057.048-.119.048-.186 0-.068-.016-.13-.048-.186-.033-.057-.081-.103-.142-.136-.063-.033-.136-.05-.22-.05zm.57-.904c0 .103-.023.196-.07.28-.047.083-.113.148-.198.196-.087.047-.187.07-.3.07-.112 0-.211-.024-.296-.072-.087-.049-.153-.116-.198-.2-.047-.084-.07-.178-.07-.282 0-.104.023-.198.07-.282.045-.084.111-.15.196-.198.085-.049.185-.074.298-.074.113 0 .213.026.3.076.085.05.151.117.198.202.047.086.07.18.07.284zm-.16 0c0-.065-.015-.126-.046-.184-.031-.057-.077-.103-.138-.138-.061-.036-.136-.054-.224-.054s-.163.018-.224.052c-.061.035-.107.08-.136.136-.031.056-.046.117-.046.182 0 .067.015.128.046.184.029.055.075.099.136.132.061.034.136.05.224.05.089 0 .165-.016.226-.048.061-.033.107-.077.138-.132.029-.054.044-.114.044-.18zm.16-1.189c0 .084-.014.16-.042.226-.029.067-.069.12-.12.158-.052.039-.111.06-.178.064v-.188c.055-.005.099-.03.134-.076s.052-.107.052-.182c0-.069-.015-.124-.046-.164-.031-.04-.069-.06-.116-.06-.048 0-.083.022-.106.064-.024.043-.047.109-.07.198-.021.082-.043.148-.064.2-.023.051-.055.095-.098.132-.044.036-.101.054-.172.054-.056 0-.107-.016-.154-.05-.047-.033-.083-.08-.11-.142-.028-.061-.042-.131-.042-.21 0-.121.031-.219.092-.294.061-.074.145-.114.252-.12v.182c-.057.004-.103.028-.138.07-.035.042-.052.098-.052.168 0 .066.014.118.042.156.028.039.065.058.11.058.036 0 .066-.011.09-.034.023-.024.041-.053.056-.088.013-.036.029-.085.046-.148.021-.078.043-.142.064-.192.02-.049.051-.091.092-.126.041-.036.095-.054.162-.056.06 0 .114.017.162.05.048.034.086.081.114.142.027.06.04.13.04.208zm-.608-1.657c.035 0 .071.002.11.006v.876c.108-.006.193-.043.254-.11.06-.068.09-.15.09-.246 0-.078-.018-.144-.054-.196-.037-.053-.087-.09-.148-.112v-.196c.105.03.191.088.258.176.065.088.098.198.098.328 0 .104-.023.198-.07.28-.047.082-.113.146-.198.192-.087.047-.187.07-.3.07-.113 0-.213-.022-.298-.068-.085-.045-.151-.108-.196-.19-.047-.082-.07-.177-.07-.284 0-.104.023-.196.068-.276.045-.08.108-.141.188-.184.079-.044.168-.066.268-.066zm-.038.188c-.069 0-.129.016-.178.046-.051.031-.089.073-.114.126-.027.052-.04.11-.04.174 0 .092.029.171.088.236.059.064.14.101.244.11v-.692zm.076-.36c-.112 0-.21-.023-.294-.068-.085-.045-.151-.107-.198-.186-.047-.08-.07-.169-.07-.268 0-.085.02-.165.06-.238.039-.073.09-.129.154-.168h-.58v-.184H180v.184h-.206c.065.036.119.089.162.16.041.071.062.153.062.248 0 .097-.024.186-.072.266-.048.079-.115.141-.202.186-.087.045-.185.068-.296.068zm.002-.928c-.083 0-.155.017-.216.05s-.108.079-.14.136c-.033.056-.05.118-.05.186s.016.13.048.186c.032.056.079.101.14.134.061.033.133.05.216.05.084 0 .157-.017.22-.05.061-.033.109-.078.142-.134.032-.056.048-.118.048-.186s-.016-.13-.048-.186c-.033-.057-.081-.103-.142-.136-.063-.033-.135-.05-.218-.05zm-.396-1.247h.646c.053 0 .091-.011.114-.034.021-.022.032-.062.032-.118v-.134H180v.164c0 .102-.023.178-.07.228-.047.051-.123.076-.23.076h-.646v.142h-.15v-.142h-.276v-.182h.276v-.286h.15v.286zm.964-.984c0 .102-.023.196-.07.28-.047.082-.113.148-.198.196-.087.046-.187.07-.3.07-.112 0-.211-.024-.296-.072-.087-.05-.153-.116-.198-.2-.047-.084-.07-.178-.07-.282 0-.104.023-.198.07-.282.045-.084.111-.15.196-.198.085-.05.185-.074.298-.074.113 0 .213.025.3.076.085.049.151.116.198.202.047.085.07.18.07.284zm-.16 0c0-.066-.015-.127-.046-.184-.031-.058-.077-.104-.138-.138-.061-.036-.136-.054-.224-.054s-.163.017-.224.052c-.061.034-.107.08-.136.136-.031.056-.046.116-.046.182 0 .066.015.128.046.184.029.054.075.098.136.132.061.033.136.05.224.05.089 0 .165-.016.226-.048.061-.034.107-.078.138-.132.029-.055.044-.115.044-.18zm-.75-1.517c-.065-.037-.119-.092-.16-.164-.041-.072-.062-.154-.062-.246 0-.098.023-.187.07-.266.047-.078.113-.14.198-.186.084-.045.182-.068.294-.068.111 0 .209.023.296.068.087.046.154.108.202.188.048.079.072.167.072.264 0 .095-.021.178-.062.25-.041.071-.094.124-.158.16H180v.182h-1.48v-.182h.588zm.34-.744c-.083 0-.155.017-.216.05-.061.034-.108.079-.14.136-.032.056-.048.118-.048.186 0 .067.017.129.05.186.032.056.079.102.142.136.061.034.133.05.214.05.083 0 .155-.016.218-.05.061-.034.109-.08.142-.136.032-.057.048-.119.048-.186 0-.068-.016-.13-.048-.186-.033-.057-.081-.102-.142-.136-.063-.033-.136-.05-.22-.05zm-.038-1.425c.035 0 .071.002.11.006v.876c.108-.007.193-.044.254-.11.06-.068.09-.15.09-.246 0-.079-.018-.144-.054-.196-.037-.054-.087-.091-.148-.112v-.196c.105.029.191.088.258.176.065.088.098.197.098.328 0 .104-.023.197-.07.28-.047.081-.113.145-.198.192-.087.046-.187.07-.3.07-.113 0-.213-.023-.298-.068-.085-.046-.151-.109-.196-.19-.047-.083-.07-.178-.07-.284 0-.104.023-.196.068-.276.045-.08.108-.142.188-.184.079-.044.168-.066.268-.066zm-.038.188c-.069 0-.129.015-.178.046-.051.03-.089.072-.114.126-.027.052-.04.11-.04.174 0 .092.029.17.088.236.059.064.14.1.244.11v-.692zm.076-.894c-.112 0-.21-.022-.294-.068-.085-.045-.151-.107-.198-.186-.047-.08-.07-.168-.07-.266 0-.096.021-.179.062-.25.041-.07.093-.123.156-.158h-.2v-.184H180v.184h-.204c.064.036.117.09.16.162.041.071.062.154.062.248 0 .098-.024.186-.072.264-.048.079-.115.141-.202.186-.087.046-.185.068-.296.068zm.002-.928c-.083 0-.155.017-.216.05-.061.034-.108.079-.14.136-.033.056-.05.118-.05.186s.016.13.048.186c.032.056.079.101.14.134.061.034.133.05.216.05.084 0 .157-.016.22-.05.061-.033.109-.078.142-.134.032-.056.048-.118.048-.186s-.016-.13-.048-.186c-.033-.057-.081-.102-.142-.136-.063-.033-.135-.05-.218-.05zm-.344-1.207c-.063-.036-.115-.089-.156-.16-.043-.072-.064-.155-.064-.25 0-.097.023-.1849.07-.2635.047-.08.113-.1427.198-.188.084-.0454.182-.068.294-.068.111 0 .209.0226.296.068.087.0453.154.108.202.188.048.0786.072.1665.072.2635 0 .094-.021.176-.062.248-.043.071-.095.125-.158.162h.722v.182h-1.616v-.182h.202zm.342-.7435c-.083 0-.155.0166-.216.05-.061.0333-.108.0786-.14.136-.032.0555-.048.1175-.048.1855 0 .067.017.129.05.186.032.056.079.102.142.136.061.034.133.05.214.05.083 0 .155-.016.218-.05.061-.034.109-.08.142-.136.032-.057.048-.119.048-.186 0-.068-.016-.13-.048-.1855-.033-.0574-.081-.1027-.142-.136-.063-.0334-.136-.05-.22-.05zm-.722-.5196c0 .0347-.012.064-.036.088-.024.024-.053.036-.088.036-.035 0-.064-.012-.088-.036-.024-.024-.036-.0533-.036-.088 0-.0333.012-.0613.036-.084.024-.024.053-.036.088-.036.035 0 .064.012.088.036.024.0227.036.0507.036.084zm.178-.088H180v.182h-1.096v-.182zm-.02-.8442c0-.1333.041-.2413.122-.324.08-.0826.196-.124.348-.124H180v.18h-.62c-.109 0-.193.0274-.25.082-.059.0547-.088.1294-.088.224 0 .096.03.1727.09.23.06.056.147.084.262.084H180v.182h-1.096v-.182h.156c-.056-.036-.099-.0846-.13-.146-.031-.0626-.046-.1313-.046-.206zm.564-.6773c-.112 0-.21-.0226-.294-.068-.085-.0453-.151-.1073-.198-.186-.047-.08-.07-.1686-.07-.266 0-.096.021-.1793.062-.25.041-.0706.093-.1233.156-.158h-.2v-.184H180v.184h-.204c.064.036.117.09.16.162.041.0707.062.1534.062.248 0 .0974-.024.1854-.072.264-.048.0787-.115.1407-.202.186-.087.0454-.185.068-.296.068zm.002-.928c-.083 0-.155.0167-.216.05-.061.0334-.108.0787-.14.136-.033.056-.05.118-.05.186s.016.13.048.186c.032.056.079.1007.14.134.061.0334.133.05.216.05.084 0 .157-.0166.22-.05.061-.0333.109-.078.142-.134.032-.056.048-.118.048-.186s-.016-.13-.048-.186c-.033-.0573-.081-.1026-.142-.136-.063-.0333-.135-.05-.218-.05zm-.396-.7135h.646c.053 0 .091-.0114.114-.034.021-.0227.032-.062.032-.118v-.134H180v.164c0 .1013-.023.1773-.07.228-.047.0506-.123.076-.23.076h-.646v.142h-.15v-.142h-.276v-.182h.276v-.286h.15v.286zm.394-.4386c-.112 0-.21-.0226-.294-.068-.085-.0453-.151-.1073-.198-.186-.047-.08-.07-.1686-.07-.266 0-.096.021-.1793.062-.25.041-.0706.093-.1233.156-.158h-.2v-.184H180v.184h-.204c.064.036.117.09.16.162.041.0707.062.1534.062.248 0 .0974-.024.1854-.072.264-.048.0787-.115.1407-.202.186-.087.0454-.185.068-.296.068zm.002-.928c-.083 0-.155.0167-.216.05-.061.0334-.108.0787-.14.136-.033.056-.05.118-.05.186s.016.13.048.186c.032.056.079.1007.14.134.061.0334.133.05.216.05.084 0 .157-.0166.22-.05.061-.0333.109-.078.142-.134.032-.056.048-.118.048-.186s-.016-.13-.048-.186c-.033-.0573-.081-.1026-.142-.136-.063-.0333-.135-.05-.218-.05z" fill="#000"/></svg>