<svg width="280" height="261" viewBox="0 0 280 261" xmlns="http://www.w3.org/2000/svg" fill="none"><style>.a{fill:#C4C4C4;}.b{fill:black;}</style><rect x="80.5" y="62.8" width="90.4" height="118.6" transform="rotate(-30 80.4902 62.8077)" fill="#F7F7F7"/><path d="M220.8 110.7L161.5 8 83.2 53.2 142.5 155.9" style="stroke-width:3;stroke:black"/><rect x="133.1" y="44.5" width="28.2" height="28.2" transform="rotate(-30 133.052 44.5394)" class="a"/><rect x="110" y="66.6" width="22.3" height="3.5" transform="rotate(-30 109.976 66.5889)" class="a"/><rect x="126.2" y="94.7" width="57.3" height="3.5" transform="rotate(-30 126.198 94.6865)" class="a"/><rect x="132.8" y="106.1" width="57.3" height="3.5" transform="rotate(-30 132.788 106.101)" class="a"/><rect x="139.4" y="117.5" width="57.3" height="3.5" transform="rotate(-30 139.378 117.516)" class="a"/><rect x="166.6" y="117" width="34" height="3.5" transform="rotate(-30 166.603 117.017)" class="a"/><path d="M26.3 189.5C26.3 187.5 26.8 185.7 27.7 184 28.6 182.4 29.8 181.1 31.4 180.2 33 179.3 34.8 178.8 36.7 178.8 39 178.8 41 179.4 42.7 180.5 44.4 181.6 45.6 183.1 46.4 185.2H43.2C42.6 183.9 41.7 182.9 40.6 182.2 39.6 181.6 38.3 181.2 36.7 181.2 35.3 181.2 34 181.6 32.8 182.2 31.6 182.9 30.7 183.9 30.1 185.2 29.4 186.4 29.1 187.9 29.1 189.5 29.1 191.2 29.4 192.7 30.1 193.9 30.7 195.2 31.6 196.1 32.8 196.8 34 197.5 35.3 197.8 36.7 197.8 38.3 197.8 39.6 197.5 40.6 196.8 41.7 196.1 42.6 195.2 43.2 193.9H46.4C45.6 195.9 44.4 197.5 42.7 198.6 41 199.6 39 200.2 36.7 200.2 34.8 200.2 33 199.7 31.4 198.8 29.8 197.9 28.6 196.6 27.7 195 26.8 193.4 26.3 191.6 26.3 189.5ZM65.1 183.6V200H62.3V197.6C61.8 198.4 61.1 199.1 60.1 199.6 59.2 200 58.2 200.2 57.1 200.2 55.8 200.2 54.7 200 53.6 199.5 52.6 198.9 51.8 198.1 51.2 197.1 50.6 196 50.3 194.7 50.3 193.2V183.6H53V192.8C53 194.5 53.4 195.7 54.3 196.6 55.1 197.4 56.2 197.9 57.6 197.9 59.1 197.9 60.2 197.4 61.1 196.5 61.9 195.6 62.3 194.3 62.3 192.6V183.6H65.1ZM72.4 186.2C72.9 185.3 73.6 184.6 74.4 184 75.3 183.5 76.4 183.3 77.7 183.3V186.1H77C73.9 186.1 72.4 187.7 72.4 191.1V200H69.7V183.6H72.4V186.2ZM83.6 186.2C84.1 185.3 84.8 184.6 85.6 184 86.5 183.5 87.6 183.3 88.9 183.3V186.1H88.2C85.1 186.1 83.6 187.7 83.6 191.1V200H80.9V183.6H83.6V186.2ZM93.5 180.9C92.9 180.9 92.5 180.7 92.1 180.4 91.8 180 91.6 179.6 91.6 179 91.6 178.5 91.8 178.1 92.1 177.7 92.5 177.4 92.9 177.2 93.5 177.2 94 177.2 94.4 177.4 94.7 177.7 95.1 178.1 95.3 178.5 95.3 179 95.3 179.6 95.1 180 94.7 180.4 94.4 180.7 94 180.9 93.5 180.9ZM94.8 183.6V200H92.1V183.6H94.8ZM98.4 191.8C98.4 190.1 98.8 188.6 99.4 187.3 100.1 186 101.1 185 102.3 184.3 103.5 183.6 104.9 183.3 106.4 183.3 108.4 183.3 110.1 183.8 111.4 184.8 112.7 185.7 113.6 187.1 114 188.8H111.1C110.8 187.8 110.2 187.1 109.4 186.5 108.6 185.9 107.6 185.6 106.4 185.6 104.9 185.6 103.6 186.1 102.6 187.2 101.7 188.3 101.2 189.8 101.2 191.8 101.2 193.7 101.7 195.3 102.6 196.3 103.6 197.4 104.9 198 106.4 198 107.6 198 108.6 197.7 109.4 197.1 110.2 196.6 110.8 195.8 111.1 194.7H114C113.6 196.4 112.7 197.8 111.4 198.8 110.1 199.8 108.4 200.3 106.4 200.3 104.9 200.3 103.5 199.9 102.3 199.2 101.1 198.5 100.1 197.5 99.4 196.3 98.8 195 98.4 193.5 98.4 191.8ZM132.2 183.6V200H129.5V197.6C129 198.4 128.3 199.1 127.3 199.6 126.4 200 125.4 200.2 124.3 200.2 123 200.2 121.8 200 120.8 199.5 119.8 198.9 119 198.1 118.4 197.1 117.8 196 117.5 194.7 117.5 193.2V183.6H120.2V192.8C120.2 194.5 120.6 195.7 121.4 196.6 122.3 197.4 123.4 197.9 124.8 197.9 126.3 197.9 127.4 197.4 128.3 196.5 129.1 195.6 129.5 194.3 129.5 192.6V183.6H132.2ZM139.6 177.8V200H136.9V177.8H139.6ZM158.8 183.6V200H156.1V197.6C155.6 198.4 154.8 199.1 153.9 199.6 153 200 152 200.2 150.8 200.2 149.6 200.2 148.4 200 147.4 199.5 146.4 198.9 145.6 198.1 145 197.1 144.4 196 144.1 194.7 144.1 193.2V183.6H146.8V192.8C146.8 194.5 147.2 195.7 148 196.6 148.8 197.4 150 197.9 151.4 197.9 152.8 197.9 154 197.4 154.8 196.5 155.7 195.6 156.1 194.3 156.1 192.6V183.6H158.8ZM183.2 183.3C184.5 183.3 185.6 183.5 186.6 184.1 187.6 184.6 188.4 185.4 189 186.4 189.6 187.5 189.9 188.8 189.9 190.3V200H187.2V190.7C187.2 189.1 186.7 187.8 185.9 187 185.1 186.1 184 185.6 182.7 185.6 181.2 185.6 180.1 186.1 179.3 187 178.4 187.9 178 189.2 178 190.9V200H175.3V190.7C175.3 189.1 174.9 187.8 174.1 187 173.3 186.1 172.2 185.6 170.8 185.6 169.4 185.6 168.3 186.1 167.4 187 166.6 187.9 166.2 189.2 166.2 190.9V200H163.4V183.6H166.2V185.9C166.7 185.1 167.4 184.4 168.3 184 169.2 183.5 170.2 183.3 171.3 183.3 172.7 183.3 173.9 183.6 175 184.2 176.1 184.8 176.9 185.7 177.4 186.9 177.8 185.8 178.6 184.9 179.7 184.2 180.7 183.6 181.9 183.3 183.2 183.3ZM44.6 209.1L36.7 230H33.6L25.7 209.1H28.6L35.1 227.1 41.7 209.1H44.6ZM49 210.9C48.5 210.9 48 210.7 47.7 210.4 47.3 210 47.1 209.6 47.1 209 47.1 208.5 47.3 208.1 47.7 207.7 48 207.4 48.5 207.2 49 207.2 49.5 207.2 49.9 207.4 50.3 207.7 50.6 208.1 50.8 208.5 50.8 209 50.8 209.6 50.6 210 50.3 210.4 49.9 210.7 49.5 210.9 49 210.9ZM50.3 213.6V230H47.6V213.6H50.3ZM58.3 215.8V225.5C58.3 226.3 58.5 226.9 58.8 227.2 59.1 227.5 59.7 227.7 60.6 227.7H62.6V230H60.1C58.6 230 57.5 229.7 56.7 229 55.9 228.3 55.6 227.1 55.6 225.5V215.8H53.4V213.6H55.6V209.4H58.3V213.6H62.6V215.8H58.3ZM64.9 221.7C64.9 220 65.2 218.6 65.9 217.3 66.6 216 67.5 215 68.7 214.3 69.9 213.6 71.2 213.3 72.7 213.3 74.1 213.3 75.4 213.6 76.4 214.2 77.5 214.8 78.3 215.6 78.8 216.6V213.6H81.6V230H78.8V226.9C78.3 227.9 77.4 228.7 76.4 229.3 75.3 230 74.1 230.3 72.6 230.3 71.2 230.3 69.9 229.9 68.7 229.2 67.5 228.5 66.6 227.5 65.9 226.2 65.2 224.9 64.9 223.4 64.9 221.7ZM78.8 221.8C78.8 220.5 78.5 219.4 78 218.5 77.5 217.6 76.9 216.9 76 216.4 75.2 215.9 74.2 215.7 73.2 215.7 72.2 215.7 71.3 215.9 70.4 216.4 69.6 216.9 68.9 217.6 68.4 218.5 67.9 219.4 67.7 220.5 67.7 221.7 67.7 223 67.9 224.1 68.4 225 68.9 225.9 69.6 226.7 70.4 227.2 71.3 227.6 72.2 227.9 73.2 227.9 74.2 227.9 75.2 227.6 76 227.2 76.9 226.7 77.5 225.9 78 225 78.5 224.1 78.8 223 78.8 221.8ZM101.2 221.2C101.2 221.7 101.1 222.2 101.1 222.8H87.9C88 224.4 88.6 225.7 89.6 226.6 90.6 227.5 91.8 228 93.3 228 94.5 228 95.4 227.7 96.2 227.2 97 226.6 97.6 225.9 97.9 224.9H100.8C100.4 226.5 99.5 227.8 98.2 228.8 96.9 229.8 95.2 230.3 93.3 230.3 91.7 230.3 90.3 229.9 89.1 229.2 87.9 228.5 86.9 227.5 86.2 226.3 85.5 225 85.1 223.5 85.1 221.8 85.1 220.1 85.5 218.6 86.2 217.3 86.8 216 87.8 215 89 214.3 90.3 213.6 91.7 213.3 93.3 213.3 94.8 213.3 96.2 213.6 97.4 214.3 98.6 215 99.5 215.9 100.2 217.1 100.8 218.3 101.2 219.7 101.2 221.2ZM98.3 220.6C98.3 219.5 98.1 218.7 97.7 217.9 97.2 217.2 96.6 216.6 95.8 216.2 95 215.8 94.1 215.6 93.2 215.6 91.8 215.6 90.6 216 89.6 216.9 88.7 217.8 88.1 219 88 220.6H98.3Z" class="b"/><path d="M245.3 222.5C245.3 213.8 238.3 206.7 229.5 206.7 220.8 206.7 213.7 213.8 213.7 222.5 213.7 231.3 220.8 238.3 229.5 238.3 238.3 238.3 245.3 231.3 245.3 222.5ZM229.1 229.5C229 229.3 228.9 229.2 228.9 229.1 228.8 228.9 228.8 228.8 228.8 228.6 228.8 228.4 228.8 228.3 228.9 228.1 228.9 228 229 227.8 229.1 227.7L233.1 223.7H222.9C222.6 223.7 222.3 223.6 222.1 223.4 221.9 223.1 221.7 222.8 221.7 222.5 221.7 222.2 221.9 221.9 222.1 221.6 222.3 221.4 222.6 221.3 222.9 221.3H233.1L229.1 217.3C229 217.2 228.9 217 228.9 216.9 228.8 216.7 228.8 216.6 228.8 216.4 228.8 216.2 228.8 216.1 228.9 215.9 228.9 215.8 229 215.7 229.1 215.5 229.3 215.4 229.4 215.3 229.5 215.3 229.7 215.2 229.9 215.2 230 215.2 230.3 215.2 230.6 215.3 230.9 215.5L236.9 221.6C237.1 221.9 237.3 222.2 237.3 222.5 237.3 222.8 237.1 223.1 236.9 223.4L230.9 229.5C230.8 229.6 230.6 229.7 230.5 229.7 230.3 229.8 230.2 229.8 230 229.8 229.9 229.8 229.7 229.8 229.5 229.7 229.4 229.7 229.3 229.6 229.1 229.5Z" class="b"/></svg>