<svg fill="none" xmlns="http://www.w3.org/2000/svg" viewBox="0 0 280 261"><path fill="#F7F7F7" d="M80.4902 62.8077l78.2712894-45.18995 59.292 102.6967565-78.2712894 45.18995z"/><path d="M220.751 110.696L161.459 7.99997 83.1878 53.1899 142.48 155.886" stroke="#000" stroke-width="3"/><path fill="#C4C4C4" d="M133.052 44.5394l24.425034-14.1018 14.1018 24.425034-24.425034 14.1018zM109.976 66.5889l19.317043-11.1527 1.774295 3.073169-19.317043 11.1527zM126.198 94.6866l49.6097456-28.6422 1.774295 3.073169-49.6097456 28.6422zM132.788 106.101l49.6097456-28.6422 1.774295 3.073169-49.6097456 28.6422zM139.378 117.516l49.6097456-28.6422 1.774295 3.073169-49.6097456 28.6422zM166.603 117.017l29.4146394-16.98255 1.774295 3.073169-29.4146394 16.98255z"/><path d="M26.29 189.53c0-2.04.46-3.87 1.38-5.49.92-1.64 2.17-2.92 3.75-3.84 1.6-.92 3.37-1.38 5.31-1.38 2.28 0 4.27.55 5.97 1.65 1.7 1.1 2.94 2.66 3.72 4.68h-3.27c-.58-1.26-1.42-2.23-2.52-2.91-1.08-.68-2.38-1.02-3.9-1.02-1.46 0-2.77.34-3.93 1.02-1.16.68-2.07 1.65-2.73 2.91-.66 1.24-.99 2.7-.99 4.38 0 1.66.33 3.12.99 4.38.66 1.24 1.57 2.2 2.73 2.88 1.16.68 2.47 1.02 3.93 1.02 1.52 0 2.82-.33 3.9-.99 1.1-.68 1.94-1.65 2.52-2.91h3.27c-.78 2-2.02 3.55-3.72 4.65-1.7 1.08-3.69 1.62-5.97 1.62-1.94 0-3.71-.45-5.31-1.35-1.58-.92-2.83-2.19-3.75-3.81-.92-1.62-1.38-3.45-1.38-5.49zm38.7738-5.97V200h-2.73v-2.43c-.52.84-1.25 1.5-2.19 1.98-.92.46-1.94.69-3.06.69-1.28 0-2.43-.26-3.45-.78-1.02-.54-1.83-1.34-2.43-2.4-.58-1.06-.87-2.35-.87-3.87v-9.63h2.7v9.27c0 1.62.41 2.87 1.23 3.75.82.86 1.94 1.29 3.36 1.29 1.46 0 2.61-.45 3.45-1.35.84-.9 1.26-2.21 1.26-3.93v-9.03h2.73zm7.3395 2.67c.48-.94 1.16-1.67 2.04-2.19.9-.52 1.99-.78 3.27-.78v2.82h-.72c-3.06 0-4.59 1.66-4.59 4.98V200h-2.73v-16.44h2.73v2.67zm11.1914 0c.48-.94 1.16-1.67 2.04-2.19.9-.52 1.99-.78 3.27-.78v2.82h-.72c-3.06 0-4.59 1.66-4.59 4.98V200h-2.73v-16.44h2.73v2.67zm9.8714-5.34c-.52 0-.96-.18-1.32-.54-.36-.36-.54-.8-.54-1.32s.18-.96.54-1.32c.36-.36.8-.54 1.32-.54.5 0 .92.18 1.26.54.36.36.54.8.54 1.32s-.18.96-.54 1.32c-.34.36-.76.54-1.26.54zm1.32 2.67V200h-2.73v-16.44h2.73zm3.6328 8.19c0-1.7.34-3.18 1.02-4.44.6801-1.28 1.6201-2.27 2.8201-2.97 1.22-.7 2.61-1.05 4.17-1.05 2.02 0 3.68.49 4.98 1.47 1.32.98 2.19 2.34 2.61 4.08h-2.94c-.28-1-.83-1.79-1.65-2.37-.8-.58-1.8-.87-3-.87-1.56 0-2.82.54-3.78 1.62-.96 1.06-1.44 2.57-1.44 4.53 0 1.98.48 3.51 1.44 4.59s2.22 1.62 3.78 1.62c1.2 0 2.2-.28 3-.84.8-.56 1.35-1.36 1.65-2.4h2.94c-.44 1.68-1.32 3.03-2.64 4.05-1.32 1-2.97 1.5-4.95 1.5-1.56 0-2.95-.35-4.17-1.05-1.2-.7-2.14-1.69-2.8201-2.97-.68-1.28-1.02-2.78-1.02-4.5zm33.8231-8.19V200h-2.73v-2.43c-.52.84-1.25 1.5-2.19 1.98-.92.46-1.94.69-3.06.69-1.28 0-2.43-.26-3.45-.78-1.02-.54-1.83-1.34-2.43-2.4-.58-1.06-.87-2.35-.87-3.87v-9.63h2.7v9.27c0 1.62.41 2.87 1.23 3.75.82.86 1.94 1.29 3.36 1.29 1.46 0 2.61-.45 3.45-1.35.84-.9 1.26-2.21 1.26-3.93v-9.03h2.73zm7.339-5.76V200h-2.73v-22.2h2.73zm19.233 5.76V200h-2.73v-2.43c-.52.84-1.25 1.5-2.19 1.98-.92.46-1.94.69-3.06.69-1.28 0-2.43-.26-3.45-.78-1.02-.54-1.83-1.34-2.43-2.4-.58-1.06-.87-2.35-.87-3.87v-9.63h2.7v9.27c0 1.62.41 2.87 1.23 3.75.82.86 1.94 1.29 3.36 1.29 1.46 0 2.61-.45 3.45-1.35.84-.9 1.26-2.21 1.26-3.93v-9.03h2.73zm24.379-.3c1.28 0 2.42.27 3.42.81 1 .52 1.79 1.31 2.37 2.37.58 1.06.87 2.35.87 3.87V200h-2.7v-9.3c0-1.64-.41-2.89-1.23-3.75-.8-.88-1.89-1.32-3.27-1.32-1.42 0-2.55.46-3.39 1.38-.84.9-1.26 2.21-1.26 3.93V200h-2.7v-9.3c0-1.64-.41-2.89-1.23-3.75-.8-.88-1.89-1.32-3.27-1.32-1.42 0-2.55.46-3.39 1.38-.84.9-1.26 2.21-1.26 3.93V200h-2.73v-16.44h2.73v2.37c.54-.86 1.26-1.52 2.16-1.98.92-.46 1.93-.69 3.03-.69 1.38 0 2.6.31 3.66.93 1.06.62 1.85 1.53 2.37 2.73.46-1.16 1.22-2.06 2.28-2.7 1.06-.64 2.24-.96 3.54-.96zM44.59 209.09L36.7 230h-3.15l-7.89-20.91h2.91l6.57 18.03 6.57-18.03h2.88zm4.4034 1.8c-.52 0-.96-.18-1.32-.54-.36-.36-.54-.8-.54-1.32s.18-.96.54-1.32c.36-.36.8-.54 1.32-.54.5 0 .92.18 1.26.54.36.36.54.8.54 1.32s-.18.96-.54 1.32c-.34.36-.76.54-1.26.54zm1.32 2.67V230h-2.73v-16.44h2.73zm7.9829 2.25v9.69c0 .8.17 1.37.51 1.71.34.32.93.48 1.7699.48h2.0101V230h-2.46c-1.52 0-2.66-.35-3.42-1.05-.76-.7-1.14-1.85-1.14-3.45v-9.69h-2.13v-2.25h2.13v-4.14h2.73v4.14h4.29v2.25h-4.29zm6.5777 5.91c0-1.68.34-3.15 1.02-4.41.68-1.28 1.61-2.27 2.79-2.97 1.2-.7 2.53-1.05 3.99-1.05 1.44 0 2.69.31 3.75.93 1.06.62 1.85 1.4 2.37 2.34v-3h2.76V230h-2.76v-3.06c-.54.96-1.35 1.76-2.43 2.4-1.06.62-2.3.93-3.72.93-1.46 0-2.78-.36-3.96-1.08-1.18-.72-2.11-1.73-2.79-3.03-.68-1.3-1.02-2.78-1.02-4.44zm13.92.03c0-1.24-.25-2.32-.75-3.24-.5-.92-1.18-1.62-2.04-2.1-.84-.5-1.77-.75-2.79-.75s-1.95.24-2.79.72c-.84.48-1.51 1.18-2.01 2.1-.5.92-.75 2-.75 3.24 0 1.26.25 2.36.75 3.3.5.92 1.17 1.63 2.01 2.13.84.48 1.77.72 2.79.72s1.95-.24 2.79-.72c.86-.5 1.54-1.21 2.04-2.13.5-.94.75-2.03.75-3.27zm22.373-.6c0 .52-.03 1.07-.09 1.65H87.9374c.1 1.62.65 2.89 1.65 3.81 1.02.9 2.25 1.35 3.69 1.35 1.18 0 2.16-.27 2.94-.81.8-.56 1.36-1.3 1.68-2.22h2.9396c-.44 1.58-1.3196 2.87-2.6396 3.87-1.32.98-2.96 1.47-4.92 1.47-1.56 0-2.96-.35-4.2-1.05-1.22-.7-2.18-1.69-2.88-2.97-.7-1.3-1.05-2.8-1.05-4.5 0-1.7.34-3.19 1.02-4.47.68-1.28 1.63-2.26 2.85-2.94 1.24-.7 2.66-1.05 4.26-1.05 1.56 0 2.94.34 4.14 1.02 1.2.68 2.12 1.62 2.7596 2.82.66 1.18.99 2.52.99 4.02zm-2.8196-.57c0-1.04-.23-1.93-.69-2.67-.46-.76-1.09-1.33-1.89-1.71-.78-.4-1.65-.6-2.61-.6-1.38 0-2.56.44-3.54 1.32-.96.88-1.51 2.1-1.65 3.66h10.38z" fill="#000"/><path d="M240 240l17-17M240 223h17v17" stroke="#000" stroke-width="3" stroke-linecap="round" stroke-linejoin="round"/></svg>